<?xml version="1.0" encoding="UTF-8"?>
<svg version="1.1" xmlns="http://www.w3.org/2000/svg" width="2244" height="660">
<path d="M0 0 C1.04255447 -0.00101212 1.04255447 -0.00101212 2.10617065 -0.00204468 C61.72456751 0.08893943 119.59329236 22.26556356 163.8125 62.25 C164.88102222 63.19716561 165.95002979 64.14378399 167.01953125 65.08984375 C189.03283142 84.72453018 189.03283142 84.72453018 189.90234375 96.2734375 C189.67508729 101.27307955 187.4607911 104.93820379 183.9375 108.3125 C166.10305039 122.20420972 138.86804468 124.96265827 117.4375 129.1875 C116.12528724 129.4484363 114.81311313 129.70956704 113.50097656 129.97088623 C95.66861013 133.51479853 77.80206698 136.72413128 59.8125 139.375 C58.87819153 139.51316132 57.94388306 139.65132263 56.98126221 139.79367065 C46.54904498 141.31946798 36.12150425 142.62576688 25.61206055 143.49331665 C13.04735456 144.6121439 0.03665837 148.25047385 -8.6796875 157.90234375 C-11.38644701 161.86914648 -11.91359561 166.03674373 -11.6875 170.70703125 C-9.95882837 179.49894713 -2.03012758 186.11802931 4.8125 191.25 C9.92975132 194.64577968 15.33536005 197.48532528 20.8125 200.25 C21.50972168 200.60529785 22.20694336 200.9605957 22.92529297 201.32666016 C101.77167899 240.79497012 202.30012583 258.97323359 293.65625 264.73046875 C294.92355957 264.8087793 296.19086914 264.88708984 297.49658203 264.96777344 C299.86641348 265.10885349 302.23723973 265.23454128 304.60888672 265.34082031 C314.32797472 265.9025833 322.87320533 268.14932638 329.8125 275.25 C336.28700054 283.96081828 338.04575073 292.4619375 336.8125 303.25 C333.81089598 313.93412356 326.09645352 320.5066533 317.8125 327.25 C317.16845215 327.7773877 316.5244043 328.30477539 315.86083984 328.84814453 C291.59583207 348.50475053 264.37967088 363.28546205 234.8125 373.25 C234.03181152 373.51393555 233.25112305 373.77787109 232.44677734 374.04980469 C217.77473269 378.90879244 202.52196433 381.72553426 187.1875 383.5 C186.50244385 383.58016357 185.8173877 383.66032715 185.11157227 383.74291992 C133.12094481 389.1381146 75.52856745 364.16966216 35.8125 332.25 C35.27963379 331.83137695 34.74676758 331.41275391 34.19775391 330.98144531 C18.88639093 318.91911409 4.42671364 304.69050104 -7.00488281 288.88134766 C-8.20880517 287.22061083 -9.4416715 285.58465234 -10.6796875 283.94921875 C-42.2131833 241.73897923 -57.44481106 189.8191252 -57.30102539 137.46362305 C-57.3007425 136.03315228 -57.30090323 134.60268137 -57.3014679 133.17221069 C-57.30175191 129.33218082 -57.29591977 125.49218292 -57.28889394 121.65216041 C-57.28259394 117.62299247 -57.28205139 113.59382359 -57.28086853 109.56465149 C-57.27777465 101.95418608 -57.26958775 94.34373522 -57.25951904 86.73327619 C-57.24829718 78.06083218 -57.24283222 69.38838744 -57.23782361 60.71593797 C-57.22740328 42.89395043 -57.2098419 25.07197639 -57.1875 7.25 C-53.64743784 5.78745965 -50.44030273 4.81919876 -46.65234375 4.21484375 C-45.59466797 4.04533203 -44.53699219 3.87582031 -43.44726562 3.70117188 C-42.35091797 3.53166016 -41.25457031 3.36214844 -40.125 3.1875 C-39.05572266 3.01412109 -37.98644531 2.84074219 -36.88476562 2.66210938 C-24.58716748 0.72272985 -12.44524437 0.0110054 0 0 Z M128.8125 301.25 C128.8125 302.24 128.8125 303.23 128.8125 304.25 C129.658125 303.92 130.50375 303.59 131.375 303.25 C135.55516888 302.03395087 139.79001725 301.23875862 143.8125 303.25 C144.82243091 305.60650546 144.88600784 306.95064199 144.2734375 309.4453125 C142.15249308 313.51707212 139.00782127 316.25192554 135.6875 319.375 C134.38647955 320.5996396 133.09185162 321.83111723 131.8046875 323.0703125 C130.94399658 323.87879639 130.94399658 323.87879639 130.06591797 324.70361328 C128.49766102 326.30666649 128.49766102 326.30666649 128.8125 329.25 C135.7425 329.25 142.6725 329.25 149.8125 329.25 C149.8125 328.26 149.8125 327.27 149.8125 326.25 C144.8625 325.92 139.9125 325.59 134.8125 325.25 C135.65554688 324.43015625 136.49859375 323.6103125 137.3671875 322.765625 C138.47422316 321.67735266 139.58097939 320.58879602 140.6875 319.5 C141.24308594 318.96117187 141.79867187 318.42234375 142.37109375 317.8671875 C146.32502302 314.0626795 146.32502302 314.0626795 148.8125 309.25 C148.57846271 304.49802025 148.57846271 304.49802025 146.4375 300.375 C140.65286214 296.37025071 134.45781835 297.94542341 128.8125 301.25 Z M157.8125 302.25 C154.51964465 307.73809224 154.04925927 312.92451179 154.8125 319.25 C156.47094399 323.96347239 158.6124964 326.54999768 162.8125 329.25 C166.28620604 330.62119975 167.74224274 330.27095392 171.375 329.1875 C175.42475535 326.90491062 176.82842832 325.44707471 178.8125 321.25 C180.40933136 314.67545983 180.09838839 309.20309486 176.8125 303.25 C175.04002187 300.59128281 173.82877466 299.54673668 170.765625 298.65234375 C165.23405647 297.69638476 162.02993355 298.23339662 157.8125 302.25 Z M184.8125 301.25 C184.8125 302.24 184.8125 303.23 184.8125 304.25 C185.658125 303.92 186.50375 303.59 187.375 303.25 C191.55516888 302.03395087 195.79001725 301.23875862 199.8125 303.25 C200.40570708 307.37464295 200.76750312 309.89521367 198.3125 313.37792969 C196.21984747 315.55743547 194.05794693 317.60333917 191.8125 319.625 C190.30873878 321.0246156 188.80853263 322.42806393 187.3125 323.8359375 C186.6421875 324.4448584 185.971875 325.0537793 185.28125 325.68115234 C183.58468847 327.13515862 183.58468847 327.13515862 183.8125 329.25 C191.0725 329.25 198.3325 329.25 205.8125 329.25 C205.8125 328.26 205.8125 327.27 205.8125 326.25 C200.8625 325.92 195.9125 325.59 190.8125 325.25 C191.65554688 324.43015625 192.49859375 323.6103125 193.3671875 322.765625 C194.47422316 321.67735266 195.58097939 320.58879602 196.6875 319.5 C197.24308594 318.96117187 197.79867187 318.42234375 198.37109375 317.8671875 C202.32502302 314.0626795 202.32502302 314.0626795 204.8125 309.25 C204.57846271 304.49802025 204.57846271 304.49802025 202.4375 300.375 C196.65286214 296.37025071 190.45781835 297.94542341 184.8125 301.25 Z M208.8125 298.25 C208.8125 299.24 208.8125 300.23 208.8125 301.25 C211.1225 301.25 213.4325 301.25 215.8125 301.25 C215.8125 310.49 215.8125 319.73 215.8125 329.25 C217.1325 329.25 218.4525 329.25 219.8125 329.25 C219.8125 319.02 219.8125 308.79 219.8125 298.25 C216.1825 298.25 212.5525 298.25 208.8125 298.25 Z M168.4375 353.4375 C166.59362855 356.08744987 166.59362855 356.08744987 166.8125 358.875 C168.03970673 361.78961599 168.98394656 362.83572328 171.8125 364.25 C174.6126969 364.11340503 176.29327872 363.56153277 178.6875 362.125 C180.13094915 360.10476062 180.13094915 360.10476062 179.6875 356.6875 C179.15616067 352.99557606 179.15616067 352.99557606 175.8125 351.25 C172.15688242 350.59386351 171.21183508 350.88219138 168.4375 353.4375 Z " fill="#003A49" transform="translate(183.1875,273.75)"/>
<path d="M0 0 C0.07050736 19.51692967 0.12319036 39.033833 0.15543652 58.55086422 C0.170816 67.61574025 0.19173176 76.68053654 0.22631836 85.74536133 C0.25649722 93.65882334 0.27563952 101.57222752 0.28226548 109.48574549 C0.28613026 113.66449411 0.29501929 117.84307748 0.31719017 122.02177238 C0.43539815 145.20798784 -0.25320479 168.03645427 -5.5 190.75 C-5.79970703 192.16345703 -5.79970703 192.16345703 -6.10546875 193.60546875 C-7.46285214 199.70072536 -8.57154653 204.38103102 -14 208 C-22.75311692 208.8093865 -31.58254816 207.66055658 -40.2578125 206.53125 C-41.49950195 206.3755101 -42.74119141 206.2197702 -44.02050781 206.05931091 C-47.36369684 205.63680788 -50.70563981 205.20642992 -54.04709625 204.77054977 C-56.14277412 204.49768575 -58.23878582 204.22752941 -60.3348999 203.95803833 C-212.84714044 184.31876987 -212.84714044 184.31876987 -226.36328125 170.6015625 C-227.93577468 168.10208606 -228.56833963 166.89645636 -228.5625 164 C-228.58441406 163.360625 -228.60632813 162.72125 -228.62890625 162.0625 C-227.64384414 158.83198574 -225.68015329 156.920622 -223 155 C-219.55907407 153.54223235 -216.01040668 152.60809801 -212.40234375 151.65234375 C-210.82686516 151.21221703 -210.82686516 151.21221703 -209.21955872 150.76319885 C-206.96583759 150.13451158 -204.71015643 149.5128165 -202.45275879 148.89746094 C-196.53450045 147.28127927 -190.63287444 145.60658392 -184.73046875 143.93359375 C-183.55392731 143.60108612 -182.37738586 143.26857849 -181.16519165 142.92599487 C-170.94502137 140.02150772 -160.82594147 136.86837391 -150.75 133.5 C-150.04898163 133.26900604 -149.34796326 133.03801208 -148.6257019 132.80001831 C-141.08148505 130.30745538 -133.70438199 127.55439228 -126.4140625 124.390625 C-125.76491882 124.10948853 -125.11577515 123.82835205 -124.44696045 123.53869629 C-113.95071313 118.88437878 -113.95071313 118.88437878 -106 111 C-105.4161804 108.0850745 -105.4161804 108.0850745 -106 105 C-125.13132862 83.04601634 -168.39365793 78.63491887 -195.6796875 72.171875 C-196.84032715 71.89690186 -198.0009668 71.62192871 -199.19677734 71.33862305 C-201.33862615 70.83537565 -203.48210923 70.33901457 -205.62744141 69.85083008 C-206.56507324 69.63322021 -207.50270508 69.41561035 -208.46875 69.19140625 C-209.68208008 68.91598999 -209.68208008 68.91598999 -210.91992188 68.63500977 C-213 68 -213 68 -216 66 C-215.79523168 62.24591406 -215.02622839 61.02716234 -212.3671875 58.2734375 C-211.21512544 57.29301296 -210.05009806 56.32769294 -208.875 55.375 C-208.24537354 54.85284912 -207.61574707 54.33069824 -206.96704102 53.79272461 C-204.99397217 52.17404073 -203.0025878 50.58198003 -201 49 C-200.40848145 48.53255371 -199.81696289 48.06510742 -199.20751953 47.58349609 C-142.11716567 3.05848327 -70.89095441 -11.87821745 0 0 Z " fill="#003A49" transform="translate(587,278)"/>
<path d="M0 0 C0.98178223 0.00182281 1.96356445 0.00364563 2.97509766 0.00552368 C19.90388077 0.05816037 36.47391451 0.89570624 53.25 3.3125 C54.44931152 3.48410645 55.64862305 3.65571289 56.88427734 3.83251953 C96.041974 9.63078108 134.86115222 21.02895476 170.0703125 39.30078125 C170.98796387 39.77515625 171.90561523 40.24953125 172.85107422 40.73828125 C174.56846439 41.63733896 176.27663038 42.5543317 177.97314453 43.4921875 C178.72966309 43.89308594 179.48618164 44.29398438 180.265625 44.70703125 C181.24450684 45.24614136 181.24450684 45.24614136 182.24316406 45.79614258 C185.14521829 46.54283901 186.59089168 45.6118427 189.25 44.3125 C190.13478027 43.890896 191.01956055 43.46929199 191.93115234 43.03491211 C192.88973145 42.55803955 193.84831055 42.08116699 194.8359375 41.58984375 C209.38575445 34.41983584 223.98175982 27.83640926 239.25 22.3125 C240.10158691 22.00119141 240.95317383 21.68988281 241.83056641 21.36914062 C283.0025394 6.47833258 326.42430498 0.08319128 370.0625 0 C370.98562988 -0.00367584 371.90875977 -0.00735168 372.85986328 -0.01113892 C382.35559463 -0.03093227 391.80448473 0.17994094 401.26171875 1.08203125 C401.99679153 1.14251144 402.73186432 1.20299164 403.48921204 1.26530457 C408.18781077 1.78501942 410.91123532 2.96062342 414.25 6.3125 C415.78924476 10.4492203 415.71620375 14.2169212 414 18.25 C411.75366423 20.89746716 410.16116268 22.2353493 406.64796448 22.53282166 C405.60212692 22.51933182 404.55628937 22.50584198 403.47875977 22.49194336 C401.69267052 22.47719215 401.69267052 22.47719215 399.87049866 22.46214294 C398.57389816 22.44240921 397.27729767 22.42267548 395.94140625 22.40234375 C394.57788626 22.39096329 393.21435431 22.38094361 391.85081482 22.37220764 C386.08073577 22.33277211 380.31099891 22.26947827 374.54125977 22.19604492 C311.8707754 21.42863475 250.21190962 35.6495399 195.25 66.3125 C195.25 74.2325 195.25 82.1525 195.25 90.3125 C198.50875 88.70375 201.7675 87.095 205.125 85.4375 C251.17481161 63.21468792 304.26925998 49.07229436 355.68359375 49.1796875 C356.72338882 49.17873077 357.7631839 49.17777405 358.83448792 49.17678833 C361.01506613 49.17611334 363.19564644 49.17791962 365.3762207 49.18212891 C368.67599088 49.18748133 371.97562463 49.1821633 375.27539062 49.17578125 C407.804482 49.16334987 407.804482 49.16334987 414.125 55.0625 C415.77659363 58.36568727 415.69042955 60.66322662 415.25 64.3125 C412.17307692 69.85096154 412.17307692 69.85096154 409.25 71.3125 C407.29896858 71.38863136 405.34523349 71.39866652 403.39282227 71.37841797 C402.15875137 71.36865936 400.92468048 71.35890076 399.6532135 71.34884644 C398.98914049 71.34148342 398.32506748 71.33412041 397.64087105 71.32653427 C395.53718397 71.30437975 393.43358942 71.29037532 391.32981873 71.27883911 C385.34483218 71.2454514 379.35998679 71.20532477 373.37524414 71.14111328 C348.79083083 70.88625924 324.80601478 72.15918845 300.625 77.0625 C298.68983521 77.44873535 298.68983521 77.44873535 296.71557617 77.84277344 C264.23057903 84.44867284 231.97860501 95.27943723 202.8515625 111.23046875 C201.99892822 111.69582031 201.14629395 112.16117187 200.26782227 112.640625 C198.69219894 113.51295976 197.12642071 114.40346162 195.57397461 115.31640625 C190.43680707 118.19580777 186.12305279 119.52195834 180.25 118.3125 C176.3905129 116.8039732 172.85196133 114.85142621 169.25 112.8125 C167.19390082 111.69831741 165.13660141 110.58634696 163.078125 109.4765625 C162.07845703 108.93161133 161.07878906 108.38666016 160.04882812 107.82519531 C122.60906869 87.58995897 79.36373898 76.76349532 37.25 72.3125 C36.46669312 72.22313171 35.68338623 72.13376343 34.87634277 72.04168701 C27.62933515 71.28371549 20.45367257 71.20532529 13.17149544 71.26790047 C11.04819676 71.28556779 8.92497594 71.29567354 6.80162048 71.30381775 C0.77384119 71.32804942 -5.25383058 71.36407202 -11.28149414 71.40844727 C-14.989984 71.43523087 -18.69841587 71.45226614 -22.40698433 71.46331596 C-23.81319921 71.46951041 -25.21940283 71.4794965 -26.62556267 71.49339485 C-28.58486083 71.51262046 -30.5442766 71.51845046 -32.50366211 71.52368164 C-33.61631943 71.53113907 -34.72897675 71.5385965 -35.87535095 71.54627991 C-38.76148654 71.31156586 -40.3620181 70.91305337 -42.75 69.3125 C-45.04147823 65.91479091 -45.75 63.86583147 -45.75 59.75 C-44.55815947 55.65304818 -43.03920817 53.97519233 -39.75 51.3125 C-27.80426783 47.33058928 -12.75727172 49.0694382 -0.3125 49.0625 C1.31996674 49.06148788 1.31996674 49.06148788 2.9854126 49.06045532 C62.23690512 49.1186677 120.2340594 62.8045297 173.25 89.3125 C173.25 81.3925 173.25 73.4725 173.25 65.3125 C137.32070137 46.7450101 99.98547317 33.35429107 60.0625 26.5625 C58.90081299 26.36374268 57.73912598 26.16498535 56.54223633 25.96020508 C52.78501939 25.35270718 49.02287369 24.81110904 45.25 24.3125 C44.53583923 24.2155484 43.82167847 24.1185968 43.08587646 24.01870728 C31.51259555 22.50946603 20.03416589 22.17927704 8.375 22.29296875 C7.33375504 22.30257441 7.33375504 22.30257441 6.27147484 22.31237411 C-0.21363252 22.3756454 -6.69828147 22.46127244 -13.18261719 22.57983398 C-16.77294404 22.64429583 -20.36286425 22.68430245 -23.95367432 22.70900917 C-25.95751499 22.73002321 -27.96100686 22.77855647 -29.96435547 22.8276825 C-39.97714413 22.88407841 -39.97714413 22.88407841 -43.05859375 19.9152832 C-45.60107913 16.00283566 -45.75 13.99069165 -45.75 9.3125 C-44.17569236 5.69159244 -43.06117074 4.51994716 -39.75 2.3125 C-37.12005525 1.84064389 -34.57341579 1.48021026 -31.921875 1.20703125 C-31.12916199 1.12314651 -30.33644897 1.03926178 -29.51971436 0.95283508 C-19.69194056 0.00142345 -9.86557033 -0.03821673 0 0 Z " fill="#003A49" transform="translate(171.75,167.6875)"/>
<path d="M0 0 C1.2173584 0.1453418 2.4347168 0.29068359 3.68896484 0.44042969 C48.62551484 6.05399696 94.74268531 18.27865693 134.12866211 41.09155273 C138.10608237 43.38017843 138.10608237 43.38017843 142.55859375 43.98828125 C145.88403198 42.64214385 149.07243823 41.09512091 152.25 39.4375 C153.69598403 38.70318411 155.14261881 37.97014847 156.58984375 37.23828125 C157.69561768 36.67681396 157.69561768 36.67681396 158.82373047 36.10400391 C210.00965334 10.13779982 268.29265779 -2.28327307 325.5625 -2.1875 C326.29213959 -2.18656342 327.02177917 -2.18562683 327.77352905 -2.18466187 C337.30019617 -2.15832468 346.80680928 -1.9966601 356.3125 -1.3125 C357.23554932 -1.25924561 358.15859863 -1.20599121 359.10961914 -1.15112305 C363.52907222 -0.76303864 365.49919256 -0.40437468 369.04296875 2.45703125 C372.15248656 6.49754242 372.51332946 8.86670539 372 14 C369.59719911 18.0547265 368.14270167 19.68835409 363.5625 20.9375 C359.96829594 21.14139996 356.45391962 20.82248981 352.87109375 20.51953125 C344.08100089 19.87273998 335.31157639 19.75636636 326.5 19.75 C325.65061859 19.74932526 324.80123718 19.74865051 323.92611694 19.74795532 C264.22132074 19.82256976 207.54841354 35.67627582 154.58984375 62.65234375 C153.78659668 63.05694824 152.98334961 63.46155273 152.15576172 63.87841797 C150.36074736 64.81231332 148.61244302 65.83531278 146.87890625 66.87890625 C142.99096199 68.3929361 139.91411189 68.15900251 136 67 C132.88188637 65.59796789 129.99341128 63.87954899 127.0625 62.125 C75.93467747 33.01319121 15.63942723 19.87677998 -42.8125 19.8125 C-43.63049072 19.81132172 -44.44848145 19.81014343 -45.29125977 19.80892944 C-56.15072987 19.80831335 -56.15072987 19.80831335 -66.99365234 20.34130859 C-68.20984505 20.4286451 -68.20984505 20.4286451 -69.4506073 20.51774597 C-70.98471578 20.63503515 -72.51778876 20.76724622 -74.04902649 20.91743469 C-78.90560823 21.29489033 -81.88895836 20.60751785 -86 18 C-88.60232515 15.06189095 -89.25019085 12.83322467 -89.0625 9 C-88.80572369 5.73433212 -87.80788668 4.79433637 -85.5078125 2.33203125 C-81.55354814 -0.72484047 -77.68727209 -1.01245807 -72.8125 -1.3125 C-71.41124878 -1.41739746 -71.41124878 -1.41739746 -69.98168945 -1.52441406 C-46.76753437 -3.02460459 -23.09499465 -2.75893963 0 0 Z " fill="#C3CD00" transform="translate(215,117)"/>
<path d="M0 0 C4.02987502 0.64478 5.68509067 2.41175952 8.125 5.5 C10.28632132 8.89208414 12.20281554 12.40572431 14.125 15.9375 C15.28335619 18.0257391 16.4435582 20.11295523 17.60546875 22.19921875 C18.19247559 23.25544434 18.77948242 24.31166992 19.38427734 25.39990234 C21.99974053 30.05784786 24.70891961 34.65764679 27.4375 39.25 C27.95594482 40.12342041 28.47438965 40.99684082 29.00854492 41.89672852 C30.10524366 43.7424488 31.2026803 45.5877308 32.30078125 47.43261719 C34.37105317 50.91373287 36.43606802 54.39793555 38.5 57.8828125 C38.86933151 58.50639648 39.23866302 59.12998047 39.6191864 59.77246094 C40.35944329 61.02233457 41.09969297 62.27221247 41.8399353 63.52209473 C44.60032063 68.18216856 47.36281934 72.84099019 50.125 77.5 C56.30623272 67.31647016 62.30018452 57.03430426 68.2421875 46.70947266 C72.70267893 38.96048391 77.18314199 31.22357604 81.6875 23.5 C82.24655029 22.54037354 82.80560059 21.58074707 83.3815918 20.59204102 C84.95768373 17.89169389 86.53957408 15.19487628 88.125 12.5 C88.67397949 11.56414062 89.22295898 10.62828125 89.78857422 9.6640625 C90.32111816 8.76429688 90.85366211 7.86453125 91.40234375 6.9375 C91.87792725 6.13183594 92.35351074 5.32617188 92.84350586 4.49609375 C94.125 2.5 94.125 2.5 96.125 0.5 C99.5625 0.125 99.5625 0.125 103.125 0.5 C105.21482479 2.25981295 106.01790958 3.72720795 106.39351845 6.43769836 C106.51055022 8.9563217 106.51860826 11.45721955 106.49731445 13.97851562 C106.50096512 14.93827805 106.50461578 15.89804047 106.50837708 16.8868866 C106.51648463 20.06018759 106.50287049 23.23297828 106.48828125 26.40625 C106.48776267 28.61055501 106.48828029 30.81486049 106.48979187 33.01916504 C106.48970214 37.63931175 106.47927036 42.25928401 106.46118164 46.87939453 C106.43849459 52.80458143 106.43795031 58.72951337 106.44469929 64.65473175 C106.44803916 69.2065864 106.44140879 73.75838283 106.43157005 78.31022644 C106.4277181 80.49512935 106.42656982 82.68003873 106.4281559 84.86494446 C106.42852634 87.91725021 106.41591209 90.96922786 106.3996582 94.02148438 C106.40213562 94.92654221 106.40461304 95.83160004 106.40716553 96.76408386 C106.40008072 97.59680313 106.39299591 98.4295224 106.38569641 99.28747559 C106.38261711 100.36924198 106.38261711 100.36924198 106.37947559 101.47286224 C106.07858534 103.86973652 105.41325196 105.46158378 104.125 107.5 C101.256446 108.55683569 99.76185855 108.7299767 96.875 107.6875 C95.125 106.5 95.125 106.5 94.125 104.5 C94.00290384 102.02927491 93.93937914 99.58482792 93.91967773 97.11279297 C93.90977814 96.35172241 93.89987854 95.59065186 93.88967896 94.80651855 C93.85803322 92.28510676 93.83329443 89.76367612 93.80859375 87.2421875 C93.78802687 85.49626164 93.76703047 83.75034078 93.74562073 82.00442505 C93.69037254 77.40460258 93.6409754 72.80473497 93.59277344 68.20483398 C93.54257845 63.51281711 93.48688195 58.82086595 93.43164062 54.12890625 C93.32402546 44.91932694 93.22258796 35.70969063 93.125 26.5 C92.76523071 27.138806 92.40546143 27.777612 92.03479004 28.43577576 C90.36798119 31.39396787 88.69962235 34.35128316 87.03125 37.30859375 C86.46567383 38.31289429 85.90009766 39.31719482 85.31738281 40.35192871 C80.46137193 48.95543802 75.47583136 57.47628137 70.40234375 65.953125 C68.08154551 69.84697859 65.8380695 73.77616303 63.62890625 77.734375 C63.05269531 78.75136475 62.47648437 79.76835449 61.8828125 80.81616211 C60.77658433 82.77133756 59.68593447 84.73543347 58.61328125 86.70922852 C54.93596146 93.14868461 54.93596146 93.14868461 50.99609375 94.85546875 C47.29341305 94.39704162 46.55309423 93.27911599 44.125 90.5 C42.89736222 88.63131784 41.73160251 86.72124124 40.61328125 84.78515625 C40.12454277 83.94542519 40.12454277 83.94542519 39.62593079 83.08872986 C38.55737091 81.24992015 37.49750808 79.4062504 36.4375 77.5625 C35.69189982 76.27631201 34.94563269 74.99051044 34.19873047 73.70507812 C32.63690404 71.01597171 31.07800807 68.3251974 29.52099609 65.63330078 C25.99474825 59.54280367 22.43069163 53.4744735 18.86801147 47.40524292 C17.76829637 45.53117949 16.66971909 43.65645402 15.5715332 41.78149414 C14.89404426 40.625162 14.21655409 39.46883058 13.5390625 38.3125 C12.9507666 37.30832031 12.3624707 36.30414063 11.75634766 35.26953125 C10.2259709 32.67141781 8.67791671 30.08468039 7.125 27.5 C7.11691315 28.45800003 7.10882629 29.41600006 7.10049438 30.4030304 C7.02307127 39.42321126 6.93534178 48.44324057 6.83747292 57.46322346 C6.78748787 62.10069591 6.74115807 66.73814533 6.703125 71.37573242 C6.66630003 75.84972458 6.61994777 80.32352511 6.56693649 84.79735374 C6.54837768 86.50577629 6.53327523 88.21423993 6.52165604 89.92272377 C6.50481888 92.31237106 6.47579052 94.70157808 6.44384766 97.09106445 C6.44168747 97.80028549 6.43952728 98.50950653 6.43730164 99.24021912 C6.3750291 102.87730614 6.20128854 104.38556719 4.125 107.5 C1.26423862 108.47868153 -0.26202769 108.72135111 -3.125 107.6875 C-4.875 106.5 -4.875 106.5 -5.875 104.5 C-5.97266816 103.15116349 -6.00999882 101.79768472 -6.01544189 100.44532776 C-6.02115204 99.59708435 -6.02686218 98.74884094 -6.03274536 97.87489319 C-6.03442215 96.47611183 -6.03442215 96.47611183 -6.03613281 95.04907227 C-6.04109772 94.06848846 -6.04606262 93.08790466 -6.05117798 92.0776062 C-6.06582009 88.82386583 -6.07260446 85.57017419 -6.078125 82.31640625 C-6.08387406 80.06200661 -6.08963182 77.80760699 -6.09539795 75.5532074 C-6.10591329 70.82282279 -6.1117527 66.09245521 -6.11523438 61.36206055 C-6.12072508 55.29096377 -6.1447633 49.2200906 -6.17320633 43.14906406 C-6.19179768 38.4917484 -6.1970364 33.83448702 -6.19857025 29.17713737 C-6.20160443 26.93836174 -6.20965853 24.69958723 -6.22275543 22.46084785 C-6.23974525 19.33383101 -6.23795311 16.2073661 -6.23144531 13.08032227 C-6.2406601 12.14982559 -6.24987488 11.21932892 -6.2593689 10.26063538 C-6.25379974 9.40957214 -6.24823059 8.55850891 -6.24249268 7.68165588 C-6.24395924 6.94221017 -6.2454258 6.20276445 -6.2469368 5.44091129 C-5.53252353 1.71282418 -3.58178115 0.62291846 0 0 Z " fill="#003A49" transform="translate(1306.875,351.5)"/>
<path d="M0 0 C10.44450667 9.59811229 16.58026533 21.97003236 17.21484375 36.1328125 C17.68344049 52.37520242 14.51515816 65.5752957 3.8125 78.25 C-7.06382561 89.74678714 -21.01532871 95.0499021 -36.5625 96.1875 C-53.76467457 96.6285814 -68.97896394 90.51578326 -81.625 79 C-92.60196719 67.65777471 -96.05324666 52.36926664 -96 37 C-95.23425953 25.07430116 -90.92089799 13.97201241 -83 5 C-82.41476562 4.32195312 -81.82953125 3.64390625 -81.2265625 2.9453125 C-60.33840882 -19.64799658 -22.78193247 -19.11587437 0 0 Z M-73.734375 12.1953125 C-82.26246598 22.75250099 -84.9082166 34.48848741 -83.53515625 47.79296875 C-81.55292277 59.67190075 -75.55593561 69.20366583 -66.00390625 76.53125 C-55.78526795 83.75690759 -44.29754315 86.39050709 -31.91796875 84.5390625 C-19.63412508 82.06189355 -9.75638768 76.9473532 -2.34765625 66.71875 C4.82231388 55.63948076 6.82620175 43.54407819 4.34375 30.5703125 C1.35930655 19.63592917 -4.59286545 10.46946797 -14 4 C-34.06999416 -7.33080751 -57.69031781 -4.80735188 -73.734375 12.1953125 Z " fill="#003A49" transform="translate(868,197)"/>
<path d="M0 0 C2.07814231 1.58993158 2.90645773 2.46349396 3.36076355 5.06913757 C3.35410172 5.8618959 3.34743988 6.65465424 3.34057617 7.47143555 C3.34021362 8.38469604 3.33985107 9.29795654 3.33947754 10.2388916 C3.32412964 11.19517456 3.30878174 12.15145752 3.29296875 13.13671875 C3.28994751 14.01831665 3.28692627 14.89991455 3.28381348 15.80822754 C3.26811738 19.10143744 3.22623334 22.39448048 3.1875 25.6875 C3.125625 33.050625 3.06375 40.41375 3 48 C24.78 48 46.56 48 69 48 C68.84181389 33.69940355 68.84181389 33.69940355 68.63964844 19.39941406 C68.62796452 17.60482737 68.61777199 15.81023008 68.609375 14.015625 C68.58891113 13.0860498 68.56844727 12.15647461 68.54736328 11.19873047 C68.5438214 4.65686796 68.5438214 4.65686796 70.82910156 1.36621094 C73 0 73 0 76.125 0.125 C79 1 79 1 81 3 C81.25726891 4.83068752 81.25726891 4.83068752 81.26742554 7.09263611 C81.27595551 7.94929367 81.28448547 8.80595123 81.29327393 9.68856812 C81.29236755 10.63043976 81.29146118 11.5723114 81.29052734 12.54272461 C81.29724457 13.53306198 81.30396179 14.52339935 81.31088257 15.54374695 C81.32994029 18.82999638 81.3337906 22.11604245 81.3359375 25.40234375 C81.34235972 27.67916449 81.34908764 29.95598438 81.35610962 32.23280334 C81.36810165 37.01028355 81.37178843 41.78769134 81.37060547 46.56518555 C81.3704021 52.6969093 81.39771408 58.82817048 81.43214989 64.95978451 C81.4543505 69.66343838 81.45844512 74.3669797 81.45738602 79.07068062 C81.45975193 81.33178872 81.46863067 83.59289947 81.48405075 85.85395622 C81.50357351 89.0122639 81.49792663 92.16955803 81.48583984 95.32788086 C81.49707886 96.26772827 81.50831787 97.20757568 81.51989746 98.17590332 C81.45844122 104.47229055 81.45844122 104.47229055 79.16494751 107.11231995 C76.08122138 108.37672112 74.14900893 107.95839402 71 107 C68.89516254 103.84274381 68.7527941 103.12625389 68.77294922 99.52856445 C68.77319092 98.61530396 68.77343262 97.70204346 68.77368164 96.7611084 C68.78391357 95.80482544 68.79414551 94.84854248 68.8046875 93.86328125 C68.80670166 92.98168335 68.80871582 92.10008545 68.81079102 91.19177246 C68.82125487 87.89862871 68.84917746 84.60555913 68.875 81.3125 C68.91625 73.949375 68.9575 66.58625 69 59 C47.22 59 25.44 59 3 59 C3.15827853 74.00382795 3.15827853 74.00382795 3.36035156 89.00708008 C3.37203256 90.88622126 3.38222577 92.76537254 3.390625 94.64453125 C3.41108887 95.62240601 3.43155273 96.60028076 3.45263672 97.60778809 C3.45312012 98.54135132 3.45360352 99.47491455 3.45410156 100.43676758 C3.46298401 101.2472908 3.47186646 102.05781403 3.48101807 102.89289856 C3 105 3 105 1.16693115 106.79301453 C-1 108 -1 108 -4.125 107.875 C-7 107 -7 107 -9 104 C-9.25726891 102.0802927 -9.25726891 102.0802927 -9.26742554 99.86976624 C-9.27595551 99.03000748 -9.28448547 98.19024872 -9.29327393 97.32504272 C-9.29236755 96.40703888 -9.29146118 95.48903503 -9.29052734 94.54321289 C-9.29724457 93.57384293 -9.30396179 92.60447296 -9.31088257 91.60572815 C-9.32991305 88.39465235 -9.3337892 85.18378496 -9.3359375 81.97265625 C-9.34236146 79.74450086 -9.34908951 77.51634634 -9.35610962 75.28819275 C-9.36809471 70.61504154 -9.37178913 65.94196433 -9.37060547 61.26879883 C-9.37040211 55.27508134 -9.3977167 49.2818371 -9.43214989 43.28823185 C-9.45436502 38.68576367 -9.45844468 34.0834104 -9.45738602 29.48089409 C-9.45974963 27.27085169 -9.46861563 25.06080649 -9.48405075 22.85081673 C-9.50360329 19.76226574 -9.49791488 16.67474857 -9.48583984 13.58618164 C-9.49707886 12.67020203 -9.50831787 11.75422241 -9.51989746 10.81048584 C-9.45836574 4.63031554 -9.45836574 4.63031554 -7.12979126 1.4282074 C-4.47750329 -0.35037878 -3.13271634 -0.56228242 0 0 Z " fill="#003A49" transform="translate(1269,184)"/>
<path d="M0 0 C0.66861557 -0.00700928 1.33723114 -0.01401855 2.02610779 -0.02124023 C4.23592682 -0.03884369 6.44446487 -0.02719079 8.65429688 -0.01367188 C10.18982184 -0.01636616 11.72534514 -0.02024804 13.26086426 -0.02526855 C16.47892501 -0.03116673 19.69654165 -0.02259096 22.91455078 -0.00390625 C27.04094033 0.01888417 31.16628932 0.0057627 35.29264069 -0.01819611 C38.46339773 -0.03264588 41.63390779 -0.02805202 44.80467224 -0.01768494 C46.32612735 -0.01501534 47.84760483 -0.01829562 49.36903381 -0.02760315 C51.49532512 -0.0377561 53.61992831 -0.02228917 55.74609375 0 C56.95616089 0.00318237 58.16622803 0.00636475 59.41296387 0.00964355 C62.37304688 0.51757812 62.37304688 0.51757812 64.2911377 2.38586426 C65.37304688 4.51757812 65.37304688 4.51757812 65.31054688 7.14257812 C64.37304688 9.51757812 64.37304688 9.51757812 62.66986084 10.65182495 C59.8735884 11.70584229 57.67505702 11.75785251 54.68652344 11.74462891 C53.5456427 11.74447784 52.40476196 11.74432678 51.22930908 11.74417114 C50.0031488 11.73384857 48.77698853 11.723526 47.51367188 11.71289062 C46.2541571 11.71006073 44.99464233 11.70723083 43.69696045 11.70431519 C40.35630786 11.69501934 37.01593018 11.67706396 33.675354 11.65490723 C30.26341159 11.6344102 26.85143989 11.62519551 23.43945312 11.61523438 C16.75049651 11.59487845 10.06202049 11.55572816 3.37304688 11.51757812 C3.37304688 23.72757812 3.37304688 35.93757813 3.37304688 48.51757812 C7.17578125 48.48277344 10.97851562 48.44796875 14.89648438 48.41210938 C18.56672413 48.38873427 22.23695569 48.37050599 25.90722656 48.3527832 C28.46423027 48.33766743 31.02120794 48.31717447 33.578125 48.29125977 C37.24681004 48.25499951 40.91515328 48.23787977 44.58398438 48.22460938 C45.73297211 48.20912552 46.88195984 48.19364166 48.06576538 48.1776886 C49.65718857 48.17734871 49.65718857 48.17734871 51.28076172 48.17700195 C52.68640884 48.1670092 52.68640884 48.1670092 54.12045288 48.15681458 C54.8638089 48.27586655 55.60716492 48.39491852 56.37304688 48.51757812 C58.37304688 51.51757812 58.37304688 51.51757812 58.06054688 54.64257812 C57.37304688 57.51757812 57.37304688 57.51757812 56.37304688 58.51757812 C54.71566244 58.61104728 53.05430044 58.6350279 51.39428711 58.63110352 C50.33326279 58.63102798 49.27223846 58.63095245 48.17906189 58.63087463 C46.44783836 58.62313271 46.44783836 58.62313271 44.68164062 58.61523438 C43.50666519 58.61381943 42.33168976 58.61240448 41.12110901 58.61094666 C37.35089624 58.60532804 33.58074184 58.59277238 29.81054688 58.58007812 C27.2617196 58.57506552 24.71289141 58.5705022 22.1640625 58.56640625 C15.90034978 58.55620144 9.63676403 58.53662965 3.37304688 58.51757812 C3.37304688 71.38757813 3.37304688 84.25757813 3.37304688 97.51757812 C7.74167969 97.48277344 12.1103125 97.44796875 16.61132812 97.41210938 C20.09293611 97.39281883 23.57452902 97.37654963 27.05615997 97.36232758 C30.73245452 97.34648011 34.40854186 97.32530032 38.0847168 97.29125977 C41.62493635 97.25868298 45.16495487 97.24072879 48.70531273 97.2329464 C50.71452342 97.22469888 52.72365315 97.20127675 54.73274231 97.1776886 C56.56430122 97.17734871 56.56430122 97.17734871 58.43286133 97.17700195 C60.04835625 97.1670092 60.04835625 97.1670092 61.69648743 97.15681458 C64.37304688 97.51757812 64.37304688 97.51757812 66.22477722 98.87870789 C67.84250041 101.18760666 67.72593971 102.76501401 67.37304688 105.51757812 C65.37304688 107.51757812 65.37304688 107.51757812 62.36117554 107.75808716 C60.42258163 107.75142532 60.42258163 107.75142532 58.44482422 107.74462891 C57.37637016 107.74506699 57.37637016 107.74506699 56.28633118 107.74551392 C53.92709253 107.74411828 51.56816799 107.72854639 49.20898438 107.71289062 C47.57516655 107.70916132 45.94134649 107.70631396 44.30752563 107.70431519 C40.00351812 107.69667222 35.69964519 107.67701812 31.39569092 107.65490723 C27.00534893 107.63446302 22.61498523 107.62531653 18.22460938 107.61523438 C9.60736005 107.59377279 0.9902202 107.55962893 -7.62695312 107.51757812 C-9.25101244 104.65032873 -9.8782899 102.59311577 -9.88764954 99.30505371 C-9.89473434 98.47233444 -9.90181915 97.63961517 -9.90911865 96.78166199 C-9.90664124 95.87660416 -9.90416382 94.97154633 -9.90161133 94.0390625 C-9.90672226 93.07930008 -9.91183319 92.11953766 -9.917099 91.13069153 C-9.93100168 87.95750701 -9.9300379 84.78453948 -9.92773438 81.61132812 C-9.93162053 79.40702229 -9.93595504 77.2027172 -9.9407196 74.99841309 C-9.94818298 70.37831189 -9.94788937 65.75828712 -9.94262695 61.13818359 C-9.93682797 55.21294993 -9.95377327 49.28802841 -9.97697163 43.36284637 C-9.99169016 38.81099616 -9.9925833 34.25922148 -9.9894619 29.70735168 C-9.98997592 27.52243938 -9.99522871 25.33752294 -10.00527382 23.15263367 C-10.01758619 20.10024606 -10.01087796 17.04847127 -9.99926758 13.99609375 C-10.00691132 13.09103592 -10.01455505 12.18597809 -10.02243042 11.25349426 C-9.99320965 7.78448727 -9.90588226 5.16141957 -8.51786804 1.95751953 C-5.69750226 -0.19020347 -3.5183229 0.00925289 0 0 Z " fill="#003A49" transform="translate(1018.626953125,351.482421875)"/>
<path d="M0 0 C0.658862 -0.00525696 1.317724 -0.01051392 1.99655151 -0.01593018 C4.17372365 -0.02913053 6.35016422 -0.02039267 8.52734375 -0.01025391 C10.04044739 -0.01227465 11.55355008 -0.01518609 13.06665039 -0.01895142 C16.23756179 -0.02337479 19.40821964 -0.01694352 22.57910156 -0.00292969 C26.64480267 0.01416249 30.70990968 0.00432134 34.77558899 -0.01364708 C37.89998862 -0.02448472 41.02424726 -0.02103873 44.14865112 -0.0132637 C45.647777 -0.01126163 47.14691565 -0.01372125 48.64602661 -0.02070236 C50.74092541 -0.02831687 52.83486053 -0.0167143 54.9296875 0 C56.12198975 0.00238678 57.31429199 0.00477356 58.54272461 0.00723267 C61.46484375 0.38818359 61.46484375 0.38818359 63.38500977 1.68588257 C64.46484375 3.38818359 64.46484375 3.38818359 64.27734375 7.01318359 C64.00921875 8.12693359 63.74109375 9.24068359 63.46484375 10.38818359 C60.80576791 11.71772151 58.79919007 11.50804391 55.82177734 11.50170898 C54.64070404 11.50163345 53.45963074 11.50155792 52.24276733 11.5014801 C50.96253693 11.49631882 49.68230652 11.49115753 48.36328125 11.48583984 C47.05654449 11.4844249 45.74980774 11.48300995 44.4034729 11.48155212 C40.92808117 11.47773254 37.45273118 11.46790702 33.97735596 11.45684814 C30.4315244 11.44662202 26.88568591 11.44199717 23.33984375 11.43701172 C16.38147354 11.42681481 9.42321798 11.40724183 2.46484375 11.38818359 C2.46484375 23.59818359 2.46484375 35.80818359 2.46484375 48.38818359 C8.16894531 48.35337891 8.16894531 48.35337891 13.98828125 48.31787109 C17.65852525 48.30228767 21.32876561 48.29013546 24.99902344 48.27832031 C27.55600628 48.26824321 30.11297754 48.25458134 32.66992188 48.23730469 C36.33857067 48.21313142 40.00706754 48.20171774 43.67578125 48.19287109 C45.39926285 48.17738724 45.39926285 48.17738724 47.15756226 48.16159058 C48.74898544 48.16136398 48.74898544 48.16136398 50.37255859 48.16113281 C51.30965668 48.15669159 52.24675476 48.15225037 53.21224976 48.14767456 C55.46484375 48.38818359 55.46484375 48.38818359 57.46484375 50.38818359 C57.65234375 53.95068359 57.65234375 53.95068359 57.46484375 57.38818359 C56.46484375 58.38818359 56.46484375 58.38818359 54.29454041 58.50843811 C53.33745682 58.5062175 52.38037323 58.50399689 51.39428711 58.50170898 C50.31324203 58.50163345 49.23219696 58.50155792 48.11839294 58.5014801 C46.35435875 58.49373817 46.35435875 58.49373817 44.5546875 58.48583984 C43.35751602 58.4844249 42.16034454 58.48300995 40.92689514 58.48155212 C37.08535309 58.47593339 33.24386832 58.4633777 29.40234375 58.45068359 C26.80533938 58.44567101 24.2083341 58.44110768 21.61132812 58.43701172 C15.22912659 58.42680673 8.84704965 58.40723495 2.46484375 58.38818359 C2.46484375 71.25818359 2.46484375 84.12818359 2.46484375 97.38818359 C9.01779297 97.35337891 9.01779297 97.35337891 15.703125 97.31787109 C19.18473445 97.30501072 22.66633719 97.29416457 26.14795685 97.28468323 C29.82419087 97.27411843 33.50033281 97.25999842 37.17651367 97.23730469 C40.71672161 97.2155869 44.25684019 97.20361724 47.7971096 97.19842911 C49.8062828 97.19293087 51.81542001 97.17731625 53.82453918 97.16159058 C55.04557846 97.16143951 56.26661774 97.16128845 57.5246582 97.16113281 C59.14015312 97.15447098 59.14015312 97.15447098 60.7882843 97.14767456 C63.46484375 97.38818359 63.46484375 97.38818359 66.46484375 99.38818359 C66.83984375 102.88818359 66.83984375 102.88818359 66.46484375 106.38818359 C62.82186193 108.81683814 61.08645424 108.64655477 56.74609375 108.6628418 C56.06772461 108.66795273 55.38935547 108.67306366 54.69042969 108.67832947 C52.44847793 108.69222769 50.20683345 108.69126879 47.96484375 108.68896484 C46.40689988 108.69285125 44.84895706 108.69718581 43.29101562 108.70195007 C40.02600672 108.70941246 36.76110595 108.7091206 33.49609375 108.70385742 C29.30935802 108.69805834 25.12306403 108.71500394 20.93640137 108.7382021 C17.71937466 108.75292292 14.50245481 108.75381349 11.28540039 108.75069237 C9.74160893 108.75120627 8.19781159 108.75645696 6.65405273 108.76650429 C4.4969395 108.77882185 2.34069279 108.77210654 0.18359375 108.76049805 C-1.04423828 108.76112747 -2.27207031 108.7617569 -3.53710938 108.7624054 C-6.53515625 108.38818359 -6.53515625 108.38818359 -8.19872475 107.1281004 C-9.85353715 104.97367954 -9.91201737 103.87098521 -9.91610718 101.17529297 C-9.92456665 100.31726074 -9.93302612 99.45922852 -9.94174194 98.57519531 C-9.93566925 97.63691895 -9.92959656 96.69864258 -9.92333984 95.73193359 C-9.9285968 94.7414502 -9.93385376 93.7509668 -9.93927002 92.73046875 C-9.95249647 89.44954761 -9.94372239 86.16910985 -9.93359375 82.88818359 C-9.93561372 80.61279202 -9.93852451 78.33740107 -9.94229126 76.06201172 C-9.94671821 71.29046472 -9.94027151 66.51908605 -9.92626953 61.74755859 C-9.9091776 55.62376507 -9.91901678 49.50036596 -9.93698692 43.37658691 C-9.94781466 38.67721573 -9.94438303 33.97793843 -9.93660355 29.27856445 C-9.93459875 27.0202632 -9.93707057 24.76195349 -9.94404221 22.50366211 C-9.95163993 19.35035541 -9.94007566 16.19769222 -9.92333984 13.04443359 C-9.92941254 12.10615723 -9.93548523 11.16788086 -9.94174194 10.20117188 C-9.93328247 9.34313965 -9.924823 8.48510742 -9.91610718 7.60107422 C-9.9149761 6.85555298 -9.91384502 6.11003174 -9.91267967 5.34191895 C-8.86094159 -0.10096951 -4.76563531 0.00953997 0 0 Z " fill="#003A49" transform="translate(1393.53515625,183.61181640625)"/>
<path d="M0 0 C2.80191355 2.45288625 3.48605918 4.36861574 4.2578125 7.9765625 C3.3828125 10.3515625 3.3828125 10.3515625 2.2578125 11.9765625 C-3.83166407 12.52026577 -6.74224357 11.74457372 -11.73046875 8.28515625 C-21.12159597 2.17636476 -33.52718085 1.48993179 -44.23046875 3.6953125 C-56.88953134 7.38444002 -66.39908272 12.79086865 -73.0546875 24.4140625 C-78.73826075 35.61449085 -79.52589007 47.53617995 -76.2421875 59.7265625 C-72.21289135 71.15460105 -65.46424456 78.51158051 -54.7421875 83.9765625 C-53.93523438 84.4096875 -53.12828125 84.8428125 -52.296875 85.2890625 C-41.78931775 90.03228584 -27.62227357 89.66279752 -16.8046875 86.1015625 C-15.10407193 85.42532361 -13.41480906 84.71934744 -11.7421875 83.9765625 C-10.07696329 83.30630094 -8.41047525 82.63916208 -6.7421875 81.9765625 C-6.76313477 80.9978418 -6.78408203 80.01912109 -6.80566406 79.01074219 C-6.87816713 75.37303346 -6.92402383 71.73538834 -6.96191406 68.09716797 C-6.9820063 66.52381646 -7.00928549 64.95053942 -7.04394531 63.37744141 C-7.09257244 61.11341978 -7.11517885 58.85038677 -7.1328125 56.5859375 C-7.15345764 55.88474792 -7.17410278 55.18355835 -7.19537354 54.46112061 C-7.19692966 51.05973309 -6.95400999 49.26415705 -4.91308594 46.49316406 C-2.7421875 44.9765625 -2.7421875 44.9765625 0.3828125 45.1015625 C3.2578125 45.9765625 3.2578125 45.9765625 5.2578125 47.9765625 C5.53153943 50.84673095 5.68280035 53.61589025 5.734375 56.4921875 C5.75051849 57.34077332 5.76666199 58.18935913 5.78329468 59.06365967 C5.81098036 60.86250635 5.83242301 62.66145819 5.84814453 64.46044922 C5.88252401 67.20354449 5.97024373 69.94178173 6.05859375 72.68359375 C6.28710275 85.41717163 6.28710275 85.41717163 3.6237793 89.45214844 C1.54955329 91.0460093 -0.31116981 92.03198373 -2.7421875 92.9765625 C-4.16337891 93.77320313 -4.16337891 93.77320313 -5.61328125 94.5859375 C-6.46019531 94.96234375 -7.30710937 95.33875 -8.1796875 95.7265625 C-9.02402344 96.11328125 -9.86835937 96.5 -10.73828125 96.8984375 C-26.76534388 102.65067324 -46.29674608 102.20348286 -61.7421875 94.9765625 C-76.11773007 87.14657822 -85.08557649 75.79677019 -89.91796875 60.17578125 C-93.31906849 45.31674643 -91.28812523 29.28348294 -83.5546875 16.2265625 C-74.81912125 3.45776673 -63.68978014 -4.17300082 -48.7421875 -8.0234375 C-31.32440845 -11.02650285 -15.33168778 -8.81467608 0 0 Z " fill="#003A49" transform="translate(878.7421875,360.0234375)"/>
<path d="M0 0 C1.66047668 1.15974426 1.66047668 1.15974426 3 3 C3.39872742 5.60063171 3.39872742 5.60063171 3.43237305 8.7565918 C3.45216721 9.93758957 3.47196136 11.11858734 3.49235535 12.33537292 C3.49874527 13.61044205 3.50513519 14.88551117 3.51171875 16.19921875 C3.52966995 17.50454056 3.54762115 18.80986237 3.56611633 20.15473938 C3.61363053 23.62182596 3.64343022 27.08884741 3.66955566 30.55615234 C3.69935437 34.09550848 3.74588696 37.63464013 3.79101562 41.17382812 C3.87706445 48.11575758 3.94440254 55.05776174 4 62 C6.52516805 59.50434749 9.04429373 57.00267549 11.5625 54.5 C12.26697266 53.80390625 12.97144531 53.1078125 13.69726562 52.390625 C17.75412158 48.35246423 21.60882116 44.2157995 25.34472656 39.88012695 C27.88787524 36.99151516 30.60217255 34.29260372 33.34375 31.59375 C33.91653687 31.02474976 34.48932373 30.45574951 35.07946777 29.86950684 C37.48939282 27.47567314 39.90534478 25.08795757 42.32080078 22.69970703 C44.10142226 20.9373582 45.87978339 19.17278667 47.65625 17.40625 C48.2224707 16.84325195 48.78869141 16.28025391 49.37207031 15.70019531 C52.93984606 12.12818983 56.34499558 8.47175236 59.55273438 4.56835938 C61.24127453 2.73853786 62.89342473 1.33164923 65 0 C70.42553191 0.42553191 70.42553191 0.42553191 72 2 C72.35571876 5.42259127 72.41883643 7.35290879 70.5234375 10.28125 C69.81445312 11.0134375 69.10546875 11.745625 68.375 12.5 C67.5603125 13.35335937 66.745625 14.20671875 65.90625 15.0859375 C64.93993647 16.05971553 63.97099096 17.03088595 63 18 C62.443125 18.55848633 61.88625 19.11697266 61.3125 19.69238281 C58.89021466 22.11865217 56.46448894 24.54127814 54.02832031 26.95361328 C50.38556135 30.56960183 46.91494344 34.26002846 43.59765625 38.1796875 C40.57565288 41.62285026 37.27604329 44.80053954 34 48 C38.111415 57.17161808 46.62376439 64.90313151 53.19165039 72.44165039 C57.16855312 77.01471011 61.05968339 81.64572831 64.85546875 86.37109375 C66.3854554 88.24665116 67.95534807 90.08994535 69.55078125 91.91015625 C70.37964844 92.86792969 71.20851563 93.82570313 72.0625 94.8125 C72.81660156 95.66457031 73.57070313 96.51664062 74.34765625 97.39453125 C76.35155594 100.5543447 76.56907108 102.32410845 76 106 C73 108 73 108 69.67578125 108.0234375 C64.8468768 106.67893913 63.16491031 104.49164196 60.1875 100.625 C59.14481456 99.33855714 58.10052187 98.05341544 57.0546875 96.76953125 C56.54131836 96.12967285 56.02794922 95.48981445 55.49902344 94.83056641 C53.36686194 92.22682913 51.10331454 89.77815864 48.8125 87.3125 C44.79861286 82.94011576 41.04190888 78.41152567 37.31640625 73.79296875 C33.37769222 69.04392907 29.19263325 64.52524298 25 60 C16.62545043 63.89851741 8.59363769 70.99570613 4 79 C2.04250542 86.71355588 2.4937766 94.67036461 3.16259766 102.54248047 C3 105 3 105 1.69287109 106.81689453 C-0.89131813 108.62292005 -2.93377434 108.31939851 -6 108 C-9 106 -9 106 -9.37752342 104.13528442 C-9.3786545 103.37279388 -9.37978558 102.61030334 -9.38095093 101.82470703 C-9.3894104 100.949776 -9.39786987 100.07484497 -9.40658569 99.17340088 C-9.400513 98.21125671 -9.39444031 97.24911255 -9.38818359 96.2578125 C-9.39344055 95.24636169 -9.39869751 94.23491089 -9.40411377 93.19281006 C-9.41735874 89.83671804 -9.40855963 86.48109716 -9.3984375 83.125 C-9.40045694 80.80094308 -9.40336728 78.47688678 -9.40713501 76.15283203 C-9.41156447 71.27695699 -9.40510721 66.40124657 -9.39111328 61.52539062 C-9.37402121 55.26358945 -9.38385905 49.00217398 -9.40183067 42.74038696 C-9.41265165 37.93983026 -9.4092299 33.13936557 -9.4014473 28.33880615 C-9.39944062 26.02943883 -9.40192084 23.72006326 -9.40888596 21.41070557 C-9.41647263 18.18763987 -9.40493505 14.96520593 -9.38818359 11.7421875 C-9.39425629 10.78004333 -9.40032898 9.81789917 -9.40658569 8.82659912 C-9.39812622 7.95166809 -9.38966675 7.07673706 -9.38095093 6.17529297 C-9.37925431 5.03155716 -9.37925431 5.03155716 -9.37752342 3.86471558 C-8.42624707 -0.83395933 -3.81555128 -0.39745326 0 0 Z " fill="#003A49" transform="translate(919,184)"/>
<path d="M0 0 C13.61572664 -0.4798494 28.30045325 2.64526937 38.91015625 11.65625 C40.59765625 14.15625 40.59765625 14.15625 40.59765625 17.34375 C39.59765625 20.15625 39.59765625 20.15625 36.59765625 22.15625 C31.16924802 22.15625 27.42848055 19.3626731 22.984375 16.5859375 C13.16089553 10.70149644 1.3580428 11.25144088 -9.40234375 13.78125 C-20.7405053 16.64071231 -28.4178497 22.79434162 -35.40234375 32.15625 C-36.89050992 35.08137712 -36.89050992 35.08137712 -38.08984375 38.15625 C-38.50621094 39.166875 -38.92257812 40.1775 -39.3515625 41.21875 C-43.34087627 52.37103237 -41.75750468 63.35318847 -37.40234375 74.15625 C-32.60117463 83.82094109 -24.45271726 91.23612036 -14.40234375 95.15625 C-0.07422971 99.41302219 11.71866024 98.90734782 25.46875 93.05859375 C27.59765625 92.15625 27.59765625 92.15625 30.59765625 91.15625 C30.58718262 90.1367627 30.57670898 89.11727539 30.56591797 88.06689453 C30.52976898 84.29121398 30.50677448 80.51554879 30.48779297 76.73974609 C30.47772371 75.10430328 30.46406744 73.46887851 30.44677734 71.83349609 C30.4225692 69.4853063 30.41118268 67.13735412 30.40234375 64.7890625 C30.38685989 63.68898361 30.38685989 63.68898361 30.37106323 62.56668091 C30.37066257 60.76162303 30.4755287 58.9571717 30.59765625 57.15625 C32.59765625 55.15625 32.59765625 55.15625 36.09765625 54.90625 C39.59765625 55.15625 39.59765625 55.15625 41.59765625 57.15625 C41.88375301 60.09841997 42.04692463 62.94153485 42.109375 65.890625 C42.12789017 66.76140686 42.14640533 67.63218872 42.16548157 68.52935791 C42.19755572 70.37526804 42.22318858 72.22129949 42.24291992 74.06738281 C42.27097685 75.95319791 42.31869348 77.83882739 42.38647461 79.72363281 C42.94755249 95.36796579 42.94755249 95.36796579 39.69042969 99.68286133 C37.34788206 101.26131513 35.25796787 102.23351061 32.59765625 103.15625 C31.21661591 103.87391051 29.84058199 104.60139685 28.47265625 105.34375 C12.66410499 111.94907124 -6.27778132 112.18298888 -22.1875 105.71484375 C-36.46911378 99.01693783 -46.15649057 89.13863855 -51.77734375 74.34375 C-56.97738747 59.39927654 -55.27224848 43.211792 -48.77734375 29.03125 C-41.72808737 15.82897522 -30.80211447 7.31344702 -16.58984375 2.71875 C-10.98084887 1.19390948 -5.79657535 0.37701303 0 0 Z " fill="#003A49" transform="translate(1530.40234375,182.84375)"/>
<path d="M0 0 C4.02511448 1.44296557 5.83655847 5.29062899 7.72338867 8.93554688 C8.27728924 10.14905175 8.82350719 11.36608345 9.36328125 12.5859375 C9.66654831 13.25510193 9.96981537 13.92426636 10.28227234 14.6137085 C11.28069286 16.82029977 12.26917221 19.03119925 13.2578125 21.2421875 C13.96096371 22.80081128 14.66491746 24.35907322 15.36962891 25.91699219 C16.47297533 28.35636987 17.57579432 30.79597074 18.67602539 33.23675537 C21.99622435 40.59933433 25.37576029 47.9337775 28.76367188 55.26538086 C31.25275058 60.65304305 33.72290752 66.04930007 36.18844604 71.44776917 C37.72187197 74.80376227 39.26010445 78.15714515 40.81884766 81.50146484 C42.31600578 84.71987945 43.79014493 87.94774687 45.2578125 91.1796875 C45.68626465 92.08428711 46.1147168 92.98888672 46.55615234 93.92089844 C49.24221548 99.9302765 49.24221548 99.9302765 48.30859375 104.33984375 C47.69564453 105.52900391 47.69564453 105.52900391 47.0703125 106.7421875 C43.8203125 107.5546875 43.8203125 107.5546875 40.0703125 107.7421875 C36.0703125 102.7421875 36.0703125 102.7421875 26.0703125 79.7421875 C-3.1346875 79.2471875 -3.1346875 79.2471875 -32.9296875 78.7421875 C-33.2596875 80.3921875 -33.5896875 82.0421875 -33.9296875 83.7421875 C-35.39274479 87.54214301 -37.11622471 91.22511405 -38.8046875 94.9296875 C-39.25199219 95.93966797 -39.69929688 96.94964844 -40.16015625 97.99023438 C-40.81564453 99.4355957 -40.81564453 99.4355957 -41.484375 100.91015625 C-41.88124512 101.78953857 -42.27811523 102.6689209 -42.68701172 103.57495117 C-43.9296875 105.7421875 -43.9296875 105.7421875 -46.9296875 107.7421875 C-49.76048342 108.09603699 -51.29798839 108.1342766 -53.7421875 106.6171875 C-55.50838425 103.82845579 -55.22017809 102.03040907 -54.9296875 98.7421875 C-53.94789754 95.83309861 -52.63602874 93.10932247 -51.30078125 90.34765625 C-50.72903419 89.12925049 -50.72903419 89.12925049 -50.14573669 87.88623047 C-48.89642145 85.22910324 -47.63168487 82.5796184 -46.3671875 79.9296875 C-45.49686484 78.08372263 -44.62789979 76.23711711 -43.76025391 74.38989258 C-42.43762063 71.57423812 -41.11426122 68.7589576 -39.78674316 65.94560242 C-36.03402866 57.99075768 -32.36427556 50.00038965 -28.73675537 41.98779297 C-27.81237492 39.94666215 -26.88525873 37.90679357 -25.95751953 35.8671875 C-23.31847503 30.05927945 -20.70078327 24.24342936 -18.14453125 18.3984375 C-17.73154785 17.4597583 -17.31856445 16.5210791 -16.89306641 15.55395508 C-16.15910582 13.88035678 -15.43270351 12.20340915 -14.71630859 10.5222168 C-11.44395458 3.06777761 -8.54111327 -0.55208717 0 0 Z M-3.9296875 13.7421875 C-4.23036133 14.41870361 -4.53103516 15.09521973 -4.84082031 15.79223633 C-5.75680573 17.85320353 -6.67282476 19.91415579 -7.58886719 21.97509766 C-8.65746774 24.37961289 -9.72582351 26.78423691 -10.79394531 29.18896484 C-13.37207914 34.99276379 -15.95207591 40.79569759 -18.54205322 46.59422302 C-19.38374561 48.47882272 -20.22470077 50.36374962 -21.06542969 52.2487793 C-22.13231124 54.6402269 -23.20064507 57.03102719 -24.27050781 59.42114258 C-24.75100586 60.49904053 -25.23150391 61.57693848 -25.7265625 62.6875 C-26.15291992 63.64156738 -26.57927734 64.59563477 -27.01855469 65.57861328 C-27.99437297 67.50452315 -27.99437297 67.50452315 -27.9296875 68.7421875 C-11.7596875 68.7421875 4.4103125 68.7421875 21.0703125 68.7421875 C19.0835891 62.78201731 17.08225312 57.23960269 14.453125 51.59375 C13.94457474 50.48669205 13.94457474 50.48669205 13.42575073 49.35726929 C12.35331228 47.02519695 11.27450154 44.69614239 10.1953125 42.3671875 C9.48003232 40.81530525 8.76518546 39.2632232 8.05078125 37.7109375 C6.68071932 34.73507088 5.30851187 31.76021003 3.93457031 28.78613281 C1.62451694 23.7814592 -0.65808438 18.76442063 -2.9296875 13.7421875 C-3.2596875 13.7421875 -3.5896875 13.7421875 -3.9296875 13.7421875 Z " fill="#003A49" transform="translate(2007.9296875,184.2578125)"/>
<path d="M0 0 C0.65097656 0.061875 1.30195312 0.12375 1.97265625 0.1875 C6.87283508 2.21381649 8.98022203 7.84562674 11.01171875 12.40625 C11.29269913 13.03084106 11.5736795 13.65543213 11.86317444 14.2989502 C12.79029614 16.36311689 13.7074874 18.43154654 14.625 20.5 C15.61992521 22.72103118 16.61750224 24.94085933 17.61520386 27.16064453 C18.31290129 28.71333696 19.00976597 30.26640382 19.70584106 31.81982422 C23.27950449 39.78823414 26.93942213 47.7161202 30.60131836 55.64425659 C32.73415381 60.27001426 34.85183222 64.90272898 36.97036743 69.53504944 C38.85385777 73.64952171 40.75397496 77.7555237 42.67337036 81.85336304 C44.00531329 84.70797524 45.31316717 87.57360334 46.625 90.4375 C47.10098633 91.43716797 47.57697266 92.43683594 48.06738281 93.46679688 C51.101773 100.17687806 51.101773 100.17687806 50.20703125 104.66015625 C49.78808594 105.43230469 49.36914062 106.20445312 48.9375 107 C45.6875 107.8125 45.6875 107.8125 41.9375 108 C37.35167685 103.6960922 35.19698134 97.46248053 32.6875 91.8125 C31.99914063 90.2975293 31.99914063 90.2975293 31.296875 88.75195312 C27.9375 81.27834356 27.9375 81.27834356 27.9375 79 C8.4675 79 -11.0025 79 -31.0625 79 C-32.0525 81.97 -33.0425 84.94 -34.0625 88 C-35.17313051 90.79590278 -36.30326734 93.55550391 -37.5 96.3125 C-37.78681641 97.00150391 -38.07363281 97.69050781 -38.36914062 98.40039062 C-40.06214287 102.31050939 -41.65378955 105.27852956 -45.0625 108 C-47.96947947 108.49631357 -49.36451593 108.43323149 -51.875 106.875 C-53.63306833 104.09910263 -53.34038244 102.26871905 -53.0625 99 C-52.01958653 96.24392157 -50.92742883 93.68570846 -49.65234375 91.04296875 C-49.29351105 90.27536224 -48.93467834 89.50775574 -48.56497192 88.71688843 C-47.38689406 86.20213256 -46.19335682 83.69503623 -45 81.1875 C-44.17569281 79.43347597 -43.35270944 77.67882923 -42.53100586 75.92358398 C-41.27344611 73.23781441 -40.0150447 70.55247612 -38.75239563 67.86909485 C-35.11857543 60.14549581 -31.56880563 52.38582706 -28.05148315 44.60861206 C-27.13039546 42.57441572 -26.20558495 40.54195409 -25.27954102 38.51000977 C-22.43483804 32.26413456 -19.61892298 26.00840112 -16.86328125 19.72265625 C-16.36626709 18.60238037 -15.86925293 17.48210449 -15.35717773 16.32788086 C-14.44174929 14.26261761 -13.53799699 12.19211998 -12.64868164 10.11547852 C-9.7197313 3.54953796 -9.7197313 3.54953796 -6.51171875 0.8671875 C-4.06024158 -0.00079963 -2.56325408 -0.32613968 0 0 Z M-2.0625 14 C-4.35883172 19.09896261 -6.65151863 24.19954426 -8.94116211 29.30151367 C-9.71690916 31.0288267 -10.49356867 32.7557303 -11.27124023 34.48217773 C-12.40341984 36.99609947 -13.53205741 39.51158858 -14.66015625 42.02734375 C-14.9958815 42.77080551 -15.33160675 43.51426727 -15.67750549 44.28025818 C-19.33292894 52.45010547 -22.64874962 60.70946337 -26.0625 69 C-9.8925 69 6.2775 69 22.9375 69 C21.68929191 65.25537572 20.49869461 61.82165426 18.92211914 58.25146484 C18.53153824 57.36389496 18.14095734 56.47632507 17.73854065 55.56185913 C17.11192787 54.15065292 17.11192787 54.15065292 16.47265625 52.7109375 C16.03868027 51.73009186 15.60470428 50.74924622 15.15757751 49.73867798 C14.24199963 47.67214754 13.32494086 45.60627264 12.40649414 43.54101562 C11.00285527 40.38142721 9.60767345 37.21819352 8.21289062 34.0546875 C7.32082674 32.0440426 6.42826548 30.03361828 5.53515625 28.0234375 C5.11943863 27.0785849 4.70372101 26.1337323 4.27540588 25.1602478 C3.68480629 23.83834946 3.68480629 23.83834946 3.08227539 22.48974609 C2.73967178 21.7173056 2.39706818 20.94486511 2.04408264 20.14901733 C0.88134564 17.89094652 -0.48502553 15.98564527 -2.0625 14 Z " fill="#003A49" transform="translate(1053.0625,184)"/>
<path d="M0 0 C2.88452148 -0.3742218 2.88452148 -0.3742218 6.62109375 -0.37231445 C7.30092316 -0.37596512 7.98075256 -0.37961578 8.68118286 -0.38337708 C10.93354089 -0.39149837 13.18518301 -0.37786022 15.4375 -0.36328125 C16.99926757 -0.36276283 18.56103581 -0.36327983 20.12280273 -0.36479187 C23.39804814 -0.36470208 26.67304776 -0.35425836 29.94824219 -0.33618164 C34.15185365 -0.31349406 38.35510577 -0.31294954 42.5587616 -0.31969929 C45.78433439 -0.32303675 49.00982488 -0.31641342 52.23538208 -0.30657005 C53.78556895 -0.3027139 55.33576496 -0.30157155 56.88595581 -0.3031559 C59.05045087 -0.30352572 61.21448088 -0.29093027 63.37890625 -0.2746582 C65.22850952 -0.26774712 65.22850952 -0.26774712 67.11547852 -0.26069641 C70 0 70 0 72 2 C72.4375 4.9375 72.4375 4.9375 72 8 C68.39062688 10.78454073 65.69894659 11.37050297 61.19995117 11.34057617 C60.05914597 11.34034958 58.91834076 11.34012299 57.7429657 11.33988953 C56.52196671 11.32440567 55.30096771 11.30892181 54.04296875 11.29296875 C52.78486893 11.28872391 51.5267691 11.28447906 50.23054504 11.28010559 C46.89797865 11.26617619 43.56603592 11.23925765 40.23364258 11.20599365 C36.82834336 11.17521553 33.42297762 11.16141903 30.01757812 11.14648438 C23.34470236 11.11597748 16.67291436 11.05725093 10 11 C10 23.21 10 35.42 10 48 C15.70410156 47.96519531 15.70410156 47.96519531 21.5234375 47.9296875 C25.1936815 47.91410408 28.86392186 47.90195187 32.53417969 47.89013672 C35.09116253 47.88005962 37.64813379 47.86639774 40.20507812 47.84912109 C43.87372692 47.82494783 47.54222379 47.81353415 51.2109375 47.8046875 C52.9344191 47.78920364 52.9344191 47.78920364 54.69271851 47.77340698 C56.28414169 47.77318039 56.28414169 47.77318039 57.90771484 47.77294922 C58.84481293 47.768508 59.78191101 47.76406677 60.74740601 47.75949097 C63 48 63 48 65 50 C65.25 53 65.25 53 65 56 C63 58 63 58 60.74740601 58.24050903 C59.34175888 58.2338472 59.34175888 58.2338472 57.90771484 58.22705078 C56.84676605 58.22689972 55.78581726 58.22674866 54.69271851 58.22659302 C53.54373077 58.21627045 52.39474304 58.20594788 51.2109375 58.1953125 C50.03737701 58.1924826 48.86381653 58.18965271 47.6546936 58.18673706 C43.89469338 58.17551355 40.13492861 58.15040492 36.375 58.125 C33.8307326 58.11497301 31.28646148 58.10584668 28.7421875 58.09765625 C22.49462728 58.07726604 16.24757818 58.03812082 10 58 C10 70.87 10 83.74 10 97 C14.45242188 96.97679687 18.90484375 96.95359375 23.4921875 96.9296875 C27.0366759 96.91683055 30.58115772 96.90598319 34.12565613 96.89649963 C37.87043924 96.88592709 41.61513221 96.87179291 45.35986328 96.84912109 C48.964905 96.82743096 52.56985917 96.81543951 56.17496109 96.81024551 C57.55211898 96.80654284 58.92927194 96.79931266 60.30639267 96.78853989 C62.23139545 96.77407665 64.15648587 96.77318352 66.08154297 96.77294922 C67.17852509 96.768508 68.2755072 96.76406677 69.4057312 96.75949097 C72 97 72 97 74 99 C74.25 102 74.25 102 74 105 C71.14315394 107.85684606 69.19645079 107.25377049 65.1953125 107.25878906 C64.49597595 107.2622937 63.7966394 107.26579834 63.07611084 107.26940918 C60.75897362 107.27822876 58.44214045 107.2723767 56.125 107.265625 C54.51839133 107.26697159 52.91178305 107.26891207 51.30517578 107.27142334 C47.93583298 107.2743749 44.56659613 107.27007597 41.19726562 107.26074219 C36.87260506 107.24934758 32.54819271 107.25590689 28.22354126 107.26788712 C24.9053357 107.27510488 21.58718925 107.27281819 18.26898193 107.26763153 C16.674133 107.2662948 15.07927875 107.26794358 13.48443604 107.27259064 C11.25770802 107.27765456 9.03138524 107.26994788 6.8046875 107.25878906 C5.53608887 107.25719788 4.26749023 107.25560669 2.96044922 107.25396729 C0 107 0 107 -2 105 C-2.25168228 103.16931248 -2.25168228 103.16931248 -2.25396729 100.90736389 C-2.25960693 100.05070633 -2.26524658 99.19404877 -2.27105713 98.31143188 C-2.26700867 97.36956024 -2.26296021 96.4276886 -2.25878906 95.45727539 C-2.2622937 94.46693802 -2.26579834 93.47660065 -2.26940918 92.45625305 C-2.27823931 89.16998361 -2.27237234 85.88392803 -2.265625 82.59765625 C-2.26697139 80.32083596 -2.2689117 78.04401596 -2.27142334 75.76719666 C-2.27437643 70.98970814 -2.27007139 66.2122943 -2.26074219 61.43481445 C-2.24935406 55.30322092 -2.25590198 49.17180258 -2.26788712 43.04021549 C-2.27510621 38.33656997 -2.27281743 33.63296614 -2.26763153 28.92931938 C-2.26629484 26.6682273 -2.26794343 24.40713147 -2.27259064 22.14604378 C-2.27765591 18.98796661 -2.26994516 15.83017499 -2.25878906 12.67211914 C-2.26283752 11.73227173 -2.26688599 10.79242432 -2.27105713 9.82409668 C-2.26541748 8.96461929 -2.25977783 8.10514191 -2.25396729 7.21961975 C-2.25321323 6.47279969 -2.25245918 5.72597963 -2.25168228 4.95652866 C-2 3 -2 3 0 0 Z " fill="#003A49" transform="translate(1201,352)"/>
<path d="M0 0 C5.78670734 2.28816966 8.67084989 11.95288085 11.11686707 17.32414246 C11.48835876 18.12843185 11.85985046 18.93272125 12.24259949 19.76138306 C13.44938272 22.37759856 14.64844709 24.99726989 15.84733582 27.61711121 C16.68829329 29.44445874 17.52968888 31.27160472 18.37150574 33.09855652 C20.9335406 38.66377253 23.48490804 44.23383996 26.03483582 49.80461121 C26.81863082 51.51541305 27.60248324 53.2261886 28.38639832 54.93693542 C31.18908461 61.05477313 33.99017003 67.17333395 36.78215027 73.29606628 C37.08907806 73.96896698 37.39600586 74.64186768 37.7122345 75.3351593 C38.30624556 76.63862514 38.89943224 77.94246705 39.49171448 79.24671936 C40.90095651 82.34518361 42.32774416 85.43304618 43.79386902 88.50505066 C44.34002869 89.6570697 44.88618835 90.80908875 45.44889832 91.99601746 C45.93439148 93.00607849 46.41988464 94.01613953 46.92008972 95.05680847 C48.51753646 98.9944482 48.74450602 101.62544221 48.03483582 105.80461121 C44.79330416 107.96563231 43.7979068 108.44708674 40.03483582 107.80461121 C35.524584 103.30397613 33.3314999 97.35080695 30.78483582 91.61711121 C30.09647644 90.1021405 30.09647644 90.1021405 29.39421082 88.55656433 C26.03483582 81.08295477 26.03483582 81.08295477 26.03483582 78.80461121 C6.56483582 78.80461121 -12.90516418 78.80461121 -32.96516418 78.80461121 C-33.95516418 81.77461121 -34.94516418 84.74461121 -35.96516418 87.80461121 C-37.18665014 90.81826785 -38.57012941 93.74269588 -39.96516418 96.67961121 C-40.30805481 97.42468933 -40.65094543 98.16976746 -41.00422668 98.93742371 C-41.51082825 100.01250183 -41.51082825 100.01250183 -42.02766418 101.10929871 C-42.32801575 101.74851257 -42.62836731 102.38772644 -42.93782043 103.04631042 C-44.07710697 104.99620149 -45.23840374 106.35081512 -46.96516418 107.80461121 C-49.81996588 108.23283146 -51.3100931 108.21120705 -53.77766418 106.67961121 C-55.52786682 103.91613336 -55.23045937 102.05465478 -54.96516418 98.80461121 C-53.9930387 96.19223708 -52.9768384 93.78447832 -51.77375793 91.28507996 C-51.43721191 90.56204681 -51.10066589 89.83901367 -50.75392151 89.09407043 C-49.64712383 86.72178005 -48.52483166 84.35716449 -47.40266418 81.99211121 C-46.62510605 80.33149216 -45.8488367 78.67026911 -45.07380676 77.00846863 C-43.48354914 73.59980607 -41.88875798 70.19331989 -40.29133606 66.78800964 C-37.16364988 60.10513736 -34.11826133 53.38551651 -31.07865906 46.6622467 C-30.15655865 44.62571244 -29.23065126 42.59095609 -28.30329895 40.55680847 C-25.63670568 34.70634817 -22.97898228 28.85318378 -20.37997437 22.97232056 C-19.55830034 21.11686073 -18.73036095 19.26434237 -17.89997864 17.4127655 C-16.89022686 15.15793242 -15.89188694 12.89793958 -14.90730286 10.63200378 C-14.45975647 9.63966736 -14.01221008 8.64733093 -13.55110168 7.62492371 C-13.17002258 6.76141296 -12.78894348 5.89790222 -12.39631653 5.00822449 C-9.37008367 0.34858993 -5.25719681 -1.02430207 0 0 Z M-3.96516418 13.80461121 C-6.42045188 19.2441244 -8.87398353 24.68442522 -11.32600403 30.12541199 C-12.15757205 31.97002193 -12.9895907 33.8144288 -13.82209778 35.65861511 C-22.86174034 51.7728306 -22.86174034 51.7728306 -27.96516418 68.80461121 C-11.79516418 68.80461121 4.37483582 68.80461121 21.03483582 68.80461121 C19.83951978 65.2186631 18.75244847 61.98308968 17.21891785 58.59440613 C16.69795029 57.43741463 16.69795029 57.43741463 16.16645813 56.25704956 C15.79560089 55.44129959 15.42474365 54.62554962 15.04264832 53.78507996 C14.6554361 52.92707291 14.26822388 52.06906586 13.86927795 51.18505859 C12.6355441 48.45282482 11.39779931 45.72243076 10.15983582 42.99211121 C8.9299427 40.27209022 7.70086577 37.55170142 6.47181702 34.83129883 C5.70893962 33.14355673 4.94541286 31.45610794 4.18110657 29.76901245 C1.77566764 24.45780358 -0.60404939 19.13567203 -2.96516418 13.80461121 C-3.29516418 13.80461121 -3.62516418 13.80461121 -3.96516418 13.80461121 Z " fill="#003A49" transform="translate(1734.9651641845703,184.1953887939453)"/>
<path d="M0 0 C0.66846954 -0.00511093 1.33693909 -0.01022186 2.02566528 -0.01548767 C4.24058935 -0.02941452 6.45520331 -0.0284246 8.67016602 -0.02612305 C10.2071189 -0.03000841 11.74407071 -0.03434275 13.28102112 -0.03910828 C16.50492836 -0.04657722 19.72872612 -0.04627447 22.95263672 -0.04101562 C27.0867165 -0.03522133 31.22034822 -0.05214738 35.3543539 -0.0753603 C38.52934902 -0.09008358 41.7042359 -0.09097126 44.87925911 -0.08785057 C46.40351308 -0.08836454 47.92777299 -0.09361641 49.45199394 -0.10366249 C51.58287638 -0.11598233 53.71288189 -0.10926298 55.84375 -0.09765625 C57.05683334 -0.09828568 58.26991669 -0.0989151 59.51976013 -0.0995636 C62.48657227 0.2746582 62.48657227 0.2746582 64.40565491 1.60652161 C65.48657227 3.2746582 65.48657227 3.2746582 65.42407227 6.3371582 C64.48657227 9.2746582 64.48657227 9.2746582 62.78338623 10.44406128 C59.9933609 11.45301825 57.76773782 11.51484035 54.80004883 11.50170898 C53.65916809 11.50155792 52.51828735 11.50140686 51.34283447 11.50125122 C50.11667419 11.49092865 48.89051392 11.48060608 47.62719727 11.4699707 C46.3676825 11.46714081 45.10816772 11.46431091 43.81048584 11.46139526 C40.46983325 11.45209942 37.12945557 11.43414403 33.78887939 11.4119873 C30.37693698 11.39149028 26.96496528 11.38227559 23.55297852 11.37231445 C16.8640219 11.35195853 10.17554588 11.31280824 3.48657227 11.2746582 C3.48657227 23.4846582 3.48657227 35.6946582 3.48657227 48.2746582 C9.19067383 48.23985352 9.19067383 48.23985352 15.01000977 48.2043457 C18.68025376 48.18876228 22.35049412 48.17661007 26.02075195 48.16479492 C28.57773479 48.15471782 31.13470606 48.14105595 33.69165039 48.1237793 C37.36029919 48.09960603 41.02879606 48.08819235 44.69750977 48.0793457 C46.42099136 48.06386185 46.42099136 48.06386185 48.17929077 48.04806519 C49.77071396 48.04783859 49.77071396 48.04783859 51.39428711 48.04760742 C52.33138519 48.0431662 53.26848328 48.03872498 54.23397827 48.03414917 C56.48657227 48.2746582 56.48657227 48.2746582 58.48657227 50.2746582 C58.73657227 53.2746582 58.73657227 53.2746582 58.48657227 56.2746582 C56.48657227 58.2746582 56.48657227 58.2746582 54.23397827 58.51516724 C52.82833115 58.5085054 52.82833115 58.5085054 51.39428711 58.50170898 C50.33333832 58.50155792 49.27238953 58.50140686 48.17929077 58.50125122 C47.03030304 58.49092865 45.88131531 58.48060608 44.69750977 58.4699707 C43.52394928 58.46714081 42.35038879 58.46431091 41.14126587 58.46139526 C37.38126565 58.45017176 33.62150088 58.42506313 29.86157227 58.3996582 C27.31730486 58.38963121 24.77303374 58.38050488 22.22875977 58.37231445 C15.98119954 58.35192424 9.73415044 58.31277902 3.48657227 58.2746582 C3.48657227 71.1446582 3.48657227 84.0146582 3.48657227 97.2746582 C7.93899414 97.25145508 12.39141602 97.22825195 16.97875977 97.2043457 C20.52324816 97.19148875 24.06772999 97.18064139 27.61222839 97.17115784 C31.35701151 97.1605853 35.10170447 97.14645112 38.84643555 97.1237793 C42.45147727 97.10208916 46.05643143 97.09009772 49.66153336 97.08490372 C51.03869124 97.08120104 52.4158442 97.07397086 53.79296494 97.06319809 C55.71796772 97.04873486 57.64305813 97.04784173 59.56811523 97.04760742 C60.66509735 97.0431662 61.76207947 97.03872498 62.89230347 97.03414917 C65.48657227 97.2746582 65.48657227 97.2746582 67.48657227 99.2746582 C67.73657227 102.2746582 67.73657227 102.2746582 67.48657227 105.2746582 C64.6297262 108.13150426 62.68302306 107.52842869 58.68188477 107.53344727 C57.98254822 107.5369519 57.28321167 107.54045654 56.56268311 107.54406738 C54.24554589 107.55288696 51.92871272 107.5470349 49.61157227 107.5402832 C48.00496359 107.54162979 46.39835532 107.54357027 44.79174805 107.54608154 C41.42240525 107.54903311 38.05316839 107.54473417 34.68383789 107.53540039 C30.35917732 107.52400578 26.03476498 107.53056509 21.71011353 107.54254532 C18.39190797 107.54976308 15.07376151 107.54747639 11.7555542 107.54228973 C10.16070527 107.540953 8.56585102 107.54260178 6.9710083 107.54724884 C4.74428028 107.55231277 2.51795751 107.54460609 0.29125977 107.53344727 C-0.97733887 107.53185608 -2.2459375 107.53026489 -3.55297852 107.52862549 C-6.51342773 107.2746582 -6.51342773 107.2746582 -8.51342773 105.2746582 C-8.76511002 103.42556 -8.76511002 103.42556 -8.76739502 101.1373291 C-8.77303467 100.27081223 -8.77867432 99.40429535 -8.78448486 98.51152039 C-8.77841217 97.08233025 -8.77841217 97.08233025 -8.7722168 95.62426758 C-8.77572144 94.62257034 -8.77922607 93.62087311 -8.78283691 92.58882141 C-8.79166645 89.26528062 -8.78580072 85.9419513 -8.77905273 82.6184082 C-8.78039903 80.31677204 -8.78233927 78.01513616 -8.78485107 75.71350098 C-8.787804 70.88473814 -8.78349926 66.05604919 -8.77416992 61.22729492 C-8.76277534 55.02610137 -8.76933391 48.82508093 -8.78131485 42.62389374 C-8.78852889 37.86967658 -8.78624761 33.11550072 -8.78105927 28.36128235 C-8.77972151 26.07424398 -8.78137487 23.7872019 -8.78601837 21.50016785 C-8.79107609 18.30835993 -8.7833839 15.11683553 -8.7722168 11.92504883 C-8.77626526 10.9722554 -8.78031372 10.01946198 -8.78448486 9.03779602 C-8.77884521 8.17127914 -8.77320557 7.30476227 -8.76739502 6.4119873 C-8.76664097 5.65687111 -8.76588692 4.90175491 -8.76511002 4.12375641 C-8.09433135 -0.80442379 -3.97281349 0.01509898 0 0 Z " fill="#003A49" transform="translate(704.513427734375,351.725341796875)"/>
<path d="M0 0 C3.83098889 0.62546757 4.55476299 1.58139083 7.0625 4.5 C8.54799903 6.854919 9.94678634 9.20289975 11.3125 11.625 C15.82414235 19.45847792 20.50584717 27.18084769 25.25 34.875 C25.91483398 35.95539551 26.57966797 37.03579102 27.26464844 38.14892578 C31.4722508 44.97034173 35.74055291 51.75047392 40.0625 58.5 C40.49369141 57.7879541 40.92488281 57.0759082 41.36914062 56.34228516 C49.18290461 43.44379883 57.00559644 30.55066962 64.89526367 17.69842529 C65.92166985 16.02579677 66.9462014 14.35201835 67.97070312 12.67822266 C68.90946289 11.15140869 68.90946289 11.15140869 69.8671875 9.59375 C70.68678955 8.25860352 70.68678955 8.25860352 71.52294922 6.89648438 C74.44284533 2.35133686 74.44284533 2.35133686 76.0625 0.5 C79.125 0.125 79.125 0.125 82.0625 0.5 C84.0625 2.5 84.0625 2.5 84.53125 5.015625 C83.83557587 10.18680271 81.28726542 13.86432023 78.5625 18.25 C77.98733643 19.19866943 77.41217285 20.14733887 76.81958008 21.12475586 C74.91427072 24.2584449 72.98924643 27.37945221 71.0625 30.5 C69.68035184 32.75611984 68.29885114 35.01263645 66.91796875 37.26953125 C64.25012255 41.62421462 61.57273994 45.97290676 58.88671875 50.31640625 C58.26732422 51.33895508 57.64792969 52.36150391 57.00976562 53.41503906 C55.69224931 55.50231792 54.29635004 57.54178936 52.83398438 59.53027344 C46.23231356 68.88704154 45.97260733 76.59689119 46.1875 87.625 C46.20099761 90.00347222 46.203262 92.38148088 46.19650269 94.75997925 C46.19572656 96.22579853 46.20837222 97.69170479 46.23635864 99.15725708 C46.26980611 102.85804074 46.1773181 104.32777285 44.0625 107.5 C41.8984375 107.79296875 41.8984375 107.79296875 39.4375 107.6875 C38.62023437 107.66042969 37.80296875 107.63335937 36.9609375 107.60546875 C36.33445312 107.57066406 35.70796875 107.53585937 35.0625 107.5 C32.6848603 103.80587807 32.94286446 100.79004665 33.140625 96.48046875 C33.68466232 77.41874905 31.88702293 65.08669705 20.14746094 49.39257812 C16.69033312 44.5963193 13.6967643 39.51741345 10.65261841 34.45410156 C9.03766496 31.77602119 7.39605595 29.11459085 5.75390625 26.453125 C5.14562988 25.46376953 4.53735352 24.47441406 3.91064453 23.45507812 C2.65321318 21.44451683 1.37187811 19.44875197 0.06982422 17.46679688 C-0.87932861 16.02143555 -0.87932861 16.02143555 -1.84765625 14.546875 C-2.41750244 13.69448242 -2.98734863 12.84208984 -3.57446289 11.96386719 C-4.99422532 9.39746159 -5.63708974 7.40955719 -5.9375 4.5 C-4.42843328 1.21556068 -3.58651733 0.61047103 0 0 Z " fill="#003A49" transform="translate(906.9375,351.5)"/>
<path d="M0 0 C0.89102417 -0.00945648 1.78204834 -0.01891296 2.70007324 -0.02865601 C3.65949829 -0.02258331 4.61892334 -0.01651062 5.60742188 -0.01025391 C6.59488403 -0.01312408 7.58234619 -0.01599426 8.59973145 -0.01895142 C10.68774997 -0.02099316 12.77578758 -0.01545565 14.86376953 -0.00292969 C18.06391071 0.01312209 21.26278884 -0.002775 24.46289062 -0.02197266 C26.49023717 -0.01999024 28.51758293 -0.01614661 30.54492188 -0.01025391 C31.98405945 -0.01936295 31.98405945 -0.01936295 33.45227051 -0.02865601 C34.78880676 -0.01447128 34.78880676 -0.01447128 36.15234375 0 C37.32790833 0.00358017 37.32790833 0.00358017 38.52722168 0.00723267 C40.57617188 0.38818359 40.57617188 0.38818359 42.32740784 1.44506836 C44.2403973 4.42173877 44.00174286 7.43961029 43.98022461 10.86621094 C43.98708786 11.62605286 43.99395111 12.38589478 44.00102234 13.16876221 C44.01935681 15.68740427 44.015439 18.20542639 44.00976562 20.72412109 C44.01432868 22.48231203 44.01963462 24.24050118 44.02565002 25.99868774 C44.03459743 29.69255793 44.03214473 33.38621221 44.0222168 37.08007812 C44.01080434 41.78160455 44.03081032 46.48237123 44.06013393 51.18379784 C44.07862599 54.82159061 44.07817646 58.45920639 44.07249641 62.09703445 C44.07234435 63.82793864 44.07829198 65.55885573 44.09078789 67.28971481 C44.24969813 92.94146391 44.24969813 92.94146391 35.41210938 101.95849609 C30.24145517 105.98500554 24.16349951 108.98487782 17.57617188 109.38818359 C16.76535156 109.43845703 15.95453125 109.48873047 15.11914062 109.54052734 C3.33694753 109.95249214 -5.39207964 106.28897924 -14.42382812 98.95068359 C-16.42382812 96.38818359 -16.42382812 96.38818359 -16.86132812 93.20068359 C-16.42382812 90.38818359 -16.42382812 90.38818359 -14.42382812 88.38818359 C-11.0520365 87.8592751 -8.56730057 87.57178547 -5.68945312 89.62646484 C-4.53191398 90.69639208 -3.37973967 91.77214666 -2.23242188 92.85302734 C2.54029368 96.90416603 8.28101715 97.90950843 14.40429688 97.67724609 C18.83527506 97.08751159 22.19231421 95.38763635 25.82617188 92.76318359 C31.78969011 84.66983742 31.0486617 74.7642343 31.08789062 65.19677734 C31.10476241 63.64020901 31.12291597 62.08365409 31.14228821 60.52711487 C31.18952343 56.45840652 31.21950311 52.38975259 31.24572754 48.32086182 C31.27566774 44.15764626 31.32215135 39.99461774 31.3671875 35.83154297 C31.4529188 27.683849 31.52039709 19.53613748 31.57617188 11.38818359 C30.50133545 11.40389404 29.42649902 11.41960449 28.3190918 11.43579102 C24.33283985 11.4900747 20.34662059 11.52452781 16.36010742 11.55297852 C14.6344656 11.56806875 12.90886216 11.58854335 11.18334961 11.61450195 C8.703517 11.65087568 6.22419124 11.66790718 3.74414062 11.68115234 C2.58618233 11.70437813 2.58618233 11.70437813 1.40483093 11.72807312 C-3.92553015 11.72974944 -3.92553015 11.72974944 -6.41088867 10.02612305 C-7.87366435 7.66079115 -7.8325582 6.11305078 -7.42382812 3.38818359 C-5.1847529 0.45771307 -3.62390833 0.01103658 0 0 Z " fill="#003A49" transform="translate(1125.423828125,183.61181640625)"/>
<path d="M0 0 C5.78994811 1.95630985 7.41474208 6.21181206 10.28515625 11.3828125 C11.50588121 13.48474055 12.72725451 15.58629217 13.94921875 17.6875 C14.87976074 19.31510254 14.87976074 19.31510254 15.82910156 20.97558594 C18.84817356 26.20874787 22.0064351 31.35509762 25.16015625 36.5078125 C25.71453369 37.42191895 26.26891113 38.33602539 26.84008789 39.27783203 C30.71445206 45.66057259 34.69250375 51.9723785 38.72265625 58.2578125 C43.3173298 51.55260417 47.56747845 44.65693455 51.75704956 37.6942749 C57.31635578 28.46044726 62.91514414 19.25259243 68.66015625 10.1328125 C69.1495166 9.35244629 69.63887695 8.57208008 70.14306641 7.76806641 C70.81474854 6.70724854 70.81474854 6.70724854 71.5 5.625 C71.88406006 5.01769043 72.26812012 4.41038086 72.66381836 3.78466797 C73.72265625 2.2578125 73.72265625 2.2578125 75.72265625 0.2578125 C78.16015625 -0.1171875 78.16015625 -0.1171875 80.72265625 0.2578125 C82.59765625 1.9453125 82.59765625 1.9453125 83.72265625 4.2578125 C83.29573934 8.26374433 81.87954121 11.06278497 79.80078125 14.4765625 C79.19379395 15.48090332 78.58680664 16.48524414 77.96142578 17.52001953 C77.30513184 18.58849121 76.64883789 19.65696289 75.97265625 20.7578125 C74.96307861 22.42046143 74.96307861 22.42046143 73.93310547 24.11669922 C70.14281632 30.34595704 66.31915561 36.55481427 62.47460938 42.75073242 C61.38950112 44.50621742 60.31266172 46.26684045 59.24414062 48.0324707 C56.97719043 51.75882328 54.73953449 55.34139819 51.94921875 58.69921875 C44.03189038 68.74871755 44.75860234 80.31597318 44.88183594 92.57885742 C44.88655914 93.31507324 44.89128235 94.05128906 44.89614868 94.80981445 C44.91685085 96.84702322 44.96378196 98.88391594 45.01220703 100.9206543 C44.70550164 104.45552442 44.29322449 105.85319613 41.72265625 108.2578125 C37.64099798 108.76801978 36.19308328 108.57143052 32.72265625 106.2578125 C32.50702412 103.76005765 32.47207826 101.49465331 32.5625 99.00390625 C32.58326104 97.50321544 32.6006296 96.00247469 32.61499023 94.50170898 C32.6247287 93.71641815 32.63446716 92.93112732 32.64450073 92.12203979 C32.73462773 78.15165168 32.26066931 67.78831315 23.39306641 56.50585938 C19.8466432 51.73306416 16.91912756 46.53064821 13.84765625 41.4453125 C12.47767627 39.21335909 11.10529716 36.98287642 9.73046875 34.75390625 C9.06047852 33.66577637 8.39048828 32.57764648 7.70019531 31.45654297 C5.82031807 28.4157835 3.92514264 25.3850627 2.02734375 22.35546875 C0.92529062 20.57321995 -0.17630045 18.79068533 -1.27734375 17.0078125 C-1.78765137 16.20496826 -2.29795898 15.40212402 -2.82373047 14.57495117 C-5.37195489 10.41630975 -7.25546978 7.30127485 -6.27734375 2.2578125 C-3.27734375 0.2578125 -3.27734375 0.2578125 0 0 Z " fill="#003A49" transform="translate(1596.27734375,183.7421875)"/>
<path d="M0 0 C0.87100342 -0.00630432 1.74200684 -0.01260864 2.6394043 -0.019104 C3.57695557 -0.01505554 4.51450684 -0.01100708 5.48046875 -0.00683594 C6.44573486 -0.00874939 7.41100098 -0.01066284 8.40551758 -0.01263428 C10.44645447 -0.01399534 12.48740005 -0.01030439 14.52832031 -0.00195312 C17.65579641 0.00874742 20.78269806 -0.00185116 23.91015625 -0.01464844 C25.89192835 -0.01332683 27.8737001 -0.01076441 29.85546875 -0.00683594 C30.79302002 -0.0108844 31.73057129 -0.01493286 32.6965332 -0.019104 C34.00303833 -0.00964752 34.00303833 -0.00964752 35.3359375 0 C36.10188232 0.00159119 36.86782715 0.00318237 37.65698242 0.00482178 C39.66796875 0.25878906 39.66796875 0.25878906 42.66796875 2.25878906 C42.97567453 4.92738912 43.08779633 7.36589001 43.07202148 10.03808594 C43.07888474 10.84161499 43.08574799 11.64514404 43.09281921 12.47302246 C43.1111835 15.14137244 43.10723279 17.80913915 43.1015625 20.47753906 C43.10612301 22.33402701 43.11142819 24.19051327 43.1174469 26.04699707 C43.12639933 29.94774201 43.1239346 33.84828251 43.11401367 37.74902344 C43.10258066 42.72774523 43.12263693 47.70575178 43.15193081 52.68437958 C43.17036686 56.52449987 43.16998464 60.36445161 43.16429329 64.2046051 C43.16414066 66.03846736 43.17013654 67.87234148 43.18258476 69.7061615 C43.25643955 82.38242834 42.79889951 92.85991947 33.66015625 102.56738281 C28.84820433 106.65282435 22.92155261 108.74829242 16.66796875 109.25878906 C15.96414063 109.32195312 15.2603125 109.38511719 14.53515625 109.45019531 C4.58055469 109.94632497 -4.96458203 107.07368276 -12.74609375 100.82128906 C-14.52012006 99.07347989 -15.97930245 97.35200244 -17.33203125 95.25878906 C-17.09129103 91.88842595 -16.74405104 90.67080886 -14.33203125 88.25878906 C-11.64453125 87.75878906 -11.64453125 87.75878906 -8.33203125 88.25878906 C-6.48434883 89.63048772 -4.86014402 91.16096805 -3.171875 92.72363281 C1.85546505 96.91841973 7.80437514 97.83300084 14.20703125 97.60644531 C19.85339024 96.80878507 23.53062026 94.65860259 27.10546875 90.25878906 C29.609561 85.45093195 29.80694418 81.61679644 29.87329102 76.1953125 C29.88319061 75.49247131 29.89309021 74.78963013 29.90328979 74.06549072 C29.93479659 71.74974906 29.95961924 69.43398691 29.984375 67.11816406 C30.00495388 65.50961788 30.0259506 63.901077 30.04734802 62.2925415 C30.10247223 58.06429336 30.15192396 53.8359972 30.20019531 49.60766602 C30.25048091 45.29080952 30.3061301 40.97402254 30.36132812 36.65722656 C30.46879161 28.19113955 30.57026267 19.72499428 30.66796875 11.25878906 C29.59313232 11.27449951 28.5182959 11.29020996 27.41088867 11.30639648 C23.42463672 11.36068017 19.43841747 11.39513328 15.4519043 11.42358398 C13.72626248 11.43867422 12.00065903 11.45914882 10.27514648 11.48510742 C7.79531387 11.52148115 5.31598811 11.53851265 2.8359375 11.55175781 C1.6779792 11.5749836 1.6779792 11.5749836 0.49662781 11.59867859 C-4.81249682 11.60034823 -4.81249682 11.60034823 -7.3503418 9.93188477 C-8.33203125 8.25878906 -8.33203125 8.25878906 -8.20703125 5.19628906 C-6.83969009 0.60592946 -4.40267562 0.00914619 0 0 Z " fill="#003A49" transform="translate(1893.33203125,183.7412109375)"/>
<path d="M0 0 C0.78565842 -0.00365067 1.57131683 -0.00730133 2.38078308 -0.01106262 C4.97998616 -0.01917419 7.57856699 -0.00555325 10.17773438 0.0090332 C11.9822998 0.00955174 13.7868658 0.00903429 15.59143066 0.00752258 C19.3743533 0.00761233 23.15706295 0.01804749 26.93994141 0.03613281 C31.79247224 0.05882008 36.64469177 0.05936439 41.49726105 0.05261517 C45.22384413 0.04927597 48.95035606 0.05590434 52.67692566 0.0657444 C54.46632007 0.06959755 56.25572239 0.07074414 58.04512024 0.06915855 C60.54455689 0.06878829 63.04359229 0.0813971 65.54296875 0.09765625 C66.65583504 0.09394012 66.65583504 0.09394012 67.79118347 0.09014893 C71.5011008 0.12872621 73.10080884 0.25853076 76.27148438 2.37231445 C76.65418752 5.37015577 76.86009808 7.42564238 75.23120117 10.04541016 C72.20014376 12.09770828 69.07108187 11.74034114 65.54101562 11.6652832 C64.79059494 11.66103836 64.04017426 11.65679352 63.26701355 11.65242004 C60.87230412 11.63563896 58.47843904 11.59798935 56.08398438 11.55981445 C54.45964758 11.54476681 52.83529758 11.53107854 51.2109375 11.51879883 C47.2307949 11.4857375 43.25128275 11.43396039 39.27148438 11.37231445 C39.28036682 12.52854309 39.28924927 13.68477173 39.29840088 14.8760376 C39.37943661 25.76468396 39.43942575 36.65326926 39.47873306 47.54214859 C39.49962065 53.14045007 39.52796002 58.7385084 39.57324219 64.33666992 C39.61665764 69.73776392 39.64061265 75.13862384 39.65099335 80.53987885 C39.65839241 82.60201453 39.67284084 84.66413719 39.6944046 86.7261734 C39.72338116 89.61143322 39.72744275 92.49572195 39.72558594 95.38110352 C39.73996704 96.23634109 39.75434814 97.09157867 39.76916504 97.97273254 C39.7425427 101.7879912 39.70283116 103.75485171 37.47357178 106.94598389 C35.27148438 108.37231445 35.27148438 108.37231445 31.58398438 108.18481445 C28.27148438 107.37231445 28.27148438 107.37231445 27.27148438 106.37231445 C27.17621632 103.41985091 27.14595985 100.49083024 27.15795898 97.53808594 C27.15781296 96.61135071 27.15766693 95.68461548 27.15751648 94.72979736 C27.15821599 91.65097758 27.16601016 88.57221748 27.17382812 85.4934082 C27.17569217 83.36491428 27.17711614 81.23641992 27.17811584 79.10792542 C27.1819421 73.49369125 27.1917733 67.87948277 27.20281982 62.26525879 C27.21303164 56.54118192 27.21761297 50.81710092 27.22265625 45.09301758 C27.23339547 33.85277189 27.25047317 22.6125453 27.27148438 11.37231445 C26.22694092 11.3880249 25.18239746 11.40373535 24.10620117 11.41992188 C20.23176786 11.47421143 16.35736818 11.50866075 12.48266602 11.53710938 C10.80552517 11.55219829 9.1284238 11.57267193 7.45141602 11.59863281 C5.04107934 11.63501256 2.63126419 11.65203931 0.22070312 11.6652832 C-0.52939529 11.68076706 -1.27949371 11.69625092 -2.05232239 11.71220398 C-7.2336466 11.71388 -7.2336466 11.71388 -9.7019043 10.01025391 C-11.18311836 7.64700416 -11.13828862 6.10413444 -10.72851562 3.37231445 C-8.17308891 -0.63858564 -4.28215271 -0.04411804 0 0 Z " fill="#003A49" transform="translate(689.728515625,183.627685546875)"/>
<path d="M0 0 C0.75485687 0.00247742 1.50971375 0.00495483 2.28744507 0.00750732 C3.08271103 0.00239639 3.87797699 -0.00271454 4.69734192 -0.00798035 C7.33430442 -0.02191557 9.9710067 -0.02091663 12.60800171 -0.01861572 C14.43641762 -0.02250057 16.26483263 -0.0268348 18.09324646 -0.03160095 C21.92916792 -0.03907167 25.76499735 -0.03876579 29.60092163 -0.0335083 C34.52191762 -0.02771327 39.44253728 -0.04464129 44.36347103 -0.06785297 C48.14066275 -0.08256966 51.91776341 -0.08346483 55.69497871 -0.08034325 C57.50950427 -0.08085752 59.32403479 -0.08611516 61.13853264 -0.09615517 C63.67409741 -0.10846211 66.20892378 -0.10176278 68.74447632 -0.09014893 C69.49730896 -0.09779266 70.2501416 -0.1054364 71.02578735 -0.11331177 C76.08765759 -0.06194337 76.08765759 -0.06194337 78.53916931 1.64918518 C80.0802455 4.06548336 80.14007894 5.48506062 79.58065796 8.28216553 C75.54098051 11.51053908 71.84811859 11.6857969 66.87362671 11.57513428 C66.14823196 11.57088943 65.42283722 11.56664459 64.67546082 11.56227112 C62.37263905 11.54556096 60.07071243 11.50792513 57.76815796 11.46966553 C56.20111336 11.45460869 54.63405496 11.44092203 53.06698608 11.4286499 C49.23786839 11.39568284 45.40941462 11.34395544 41.58065796 11.28216553 C41.58509918 12.45536346 41.58954041 13.6285614 41.59411621 14.83731079 C41.63459504 25.87378491 41.66460995 36.91024403 41.6842823 47.94677544 C41.69473591 53.62126627 41.70892379 59.29569736 41.73153687 64.97015381 C41.75320912 70.44254268 41.7652147 75.91487394 41.77041245 81.3873024 C41.77411833 83.47897372 41.78135459 85.57064176 41.79211807 87.66228867 C41.80655837 90.58366552 41.80863904 93.50480191 41.80770874 96.4262085 C41.81489929 97.29798737 41.82208984 98.16976624 41.82949829 99.06796265 C41.80876228 105.0540612 41.80876228 105.0540612 39.58065796 107.28216553 C37.70565796 107.58294678 37.70565796 107.58294678 35.58065796 107.59466553 C34.87940796 107.61142334 34.17815796 107.62818115 33.45565796 107.64544678 C32.83690796 107.52556396 32.21815796 107.40568115 31.58065796 107.28216553 C28.95105807 103.33776569 29.3153041 99.97936446 29.35360718 95.40447998 C29.35331512 94.49695984 29.35302307 93.5894397 29.35272217 92.65441895 C29.35411678 89.65133135 29.36968423 86.6484911 29.38534546 83.64544678 C29.38907512 81.56465287 29.39192231 79.4838572 29.3939209 77.40306091 C29.40156104 71.9236263 29.42121284 66.44429754 29.44332886 60.96490479 C29.46377906 55.37470939 29.47292085 49.78449691 29.48300171 44.1942749 C29.50445833 33.22352525 29.53859891 22.25285418 29.58065796 11.28216553 C28.60193726 11.29787598 27.62321655 11.31358643 26.61483765 11.32977295 C22.97706358 11.38415123 19.33932532 11.41854401 15.70126343 11.44696045 C14.12795974 11.46202917 12.55469794 11.48248798 10.98153687 11.50848389 C8.717597 11.54495291 6.45421339 11.56191061 4.19003296 11.57513428 C3.48884338 11.59061813 2.78765381 11.60610199 2.06521606 11.62205505 C-1.01770261 11.62311288 -3.13783024 11.43449693 -5.87149048 9.95526123 C-7.41934204 8.28216553 -7.41934204 8.28216553 -7.79434204 5.21966553 C-7.1245539 -0.02700823 -4.76800953 0.04907276 0 0 Z " fill="#003A49" transform="translate(1102.4193420410156,351.71783447265625)"/>
<path d="M0 0 C0.99 0.66 1.98 1.32 3 2 C3.28603461 5.05018899 3.37792773 7.89638302 3.34057617 10.94775391 C3.34101425 11.87463516 3.34145233 12.80151642 3.34190369 13.75648499 C3.33980825 16.83005606 3.31644162 19.90308634 3.29296875 22.9765625 C3.28737548 25.10362449 3.28310412 27.23069034 3.28010559 29.35775757 C3.26863565 34.96385313 3.23914995 40.56971655 3.20599365 46.17572021 C3.17533906 51.89315653 3.16161012 57.61063025 3.14648438 63.328125 C3.11428234 74.55218548 3.06306005 85.77607346 3 97 C4.06115776 96.99000725 4.06115776 96.99000725 5.14375305 96.97981262 C11.80918896 96.91971303 18.4745493 96.87403161 25.14019489 96.84456348 C28.56713223 96.82890426 31.99384577 96.80766196 35.4206543 96.77368164 C39.35983608 96.73486486 43.29892709 96.72029284 47.23828125 96.70703125 C48.46960281 96.69154739 49.70092438 96.67606354 50.96955872 96.66011047 C52.11051498 96.65988388 53.25147125 96.65965729 54.42700195 96.65942383 C55.432939 96.65276199 56.43887604 96.64610016 57.47529602 96.63923645 C60 97 60 97 61.86003113 98.29472351 C63 100 63 100 62.8125 103.625 C62.4103125 105.295625 62.4103125 105.295625 62 107 C59.20508365 108.39745818 56.88872776 108.14271203 53.76196289 108.16113281 C52.4504274 108.17074036 51.13889191 108.1803479 49.78761292 108.19024658 C48.34929579 108.19509379 46.91097665 108.19937281 45.47265625 108.203125 C44.00296526 108.20887582 42.53327431 108.21463356 41.06358337 108.22039795 C37.9809433 108.23090751 34.8983293 108.23675067 31.81567383 108.24023438 C27.86322002 108.24572347 23.91110996 108.26976016 19.95876408 108.29820633 C16.92275479 108.31681664 13.88682865 108.3220374 10.85076714 108.32357025 C9.39348913 108.32660024 7.9362127 108.33464047 6.47899055 108.34775543 C4.44187335 108.36478277 2.4046147 108.36109568 0.36743164 108.35644531 C-0.79235703 108.36009094 -1.95214569 108.36373657 -3.14707947 108.36749268 C-6.39742539 107.94880652 -7.04498304 107.5287137 -9 105 C-9.37752342 103.04626465 -9.37752342 103.04626465 -9.38095093 100.78710938 C-9.3894104 99.92907715 -9.39786987 99.07104492 -9.40658569 98.18701172 C-9.400513 97.24873535 -9.39444031 96.31045898 -9.38818359 95.34375 C-9.39344055 94.3532666 -9.39869751 93.3627832 -9.40411377 92.34228516 C-9.41734022 89.06136401 -9.40856614 85.78092626 -9.3984375 82.5 C-9.40045747 80.22460842 -9.40336826 77.94921748 -9.40713501 75.67382812 C-9.41156196 70.90228112 -9.40511526 66.13090246 -9.39111328 61.359375 C-9.37402135 55.23558147 -9.38386053 49.11218237 -9.40183067 42.98840332 C-9.41265841 38.28903213 -9.40922678 33.58975484 -9.4014473 28.89038086 C-9.3994425 26.63207961 -9.40191432 24.3737699 -9.40888596 22.11547852 C-9.41648368 18.96217182 -9.40491941 15.80950863 -9.38818359 12.65625 C-9.39425629 11.71797363 -9.40032898 10.77969727 -9.40658569 9.81298828 C-9.39812622 8.95495605 -9.38966675 8.09692383 -9.38095093 7.21289062 C-9.37981985 6.46736938 -9.37868877 5.72184814 -9.37752342 4.95373535 C-8.36936345 -0.26363043 -4.65126099 -0.48450635 0 0 Z " fill="#003A49" transform="translate(1812,184)"/>
<path d="M0 0 C3.56104136 3.65006739 3.62630413 5.52365564 3.73046875 10.58984375 C3.5 12.5625 3.5 12.5625 1.5 15.5625 C0.84 15.5625 0.18 15.5625 -0.5 15.5625 C-0.5 16.2225 -0.5 16.8825 -0.5 17.5625 C0.139375 17.85125 0.77875 18.14 1.4375 18.4375 C3.5 19.5625 3.5 19.5625 4.5 21.5625 C5.18229504 26.43603602 5.00545844 29.69374331 2.5 34 C-2.59054254 38.34817175 -7.25411728 38.81538036 -13.6875 38.375 C-17.59573882 37.86549034 -20.34814554 37.04577927 -23.5 34.5625 C-24.36625 33.94375 -24.36625 33.94375 -25.25 33.3125 C-27.24959383 30.51306863 -27.32497819 27.946255 -27.5 24.5625 C-26.6875 21.875 -26.6875 21.875 -25.5 19.5625 C-24.943125 18.4178125 -24.943125 18.4178125 -24.375 17.25 C-24.08625 16.693125 -23.7975 16.13625 -23.5 15.5625 C-24.16 14.5725 -24.82 13.5825 -25.5 12.5625 C-26.32657339 7.91628748 -26.17934514 4.56028817 -23.5 0.625 C-16.60588346 -4.11470512 -6.86369376 -5.55006816 0 0 Z M-19.5 7.5625 C-18.64382686 10.27371495 -18.04750525 12.11638461 -15.8125 13.9375 C-12.46640017 14.84185131 -9.85606224 14.29473176 -6.5 13.5625 C-5.51 12.9025 -4.52 12.2425 -3.5 11.5625 C-2.91654524 8.60503508 -2.91654524 8.60503508 -3.5 5.5625 C-5.79759558 2.8053853 -7.37949963 2.58002733 -10.9375 2.0625 C-15.35385691 2.68233957 -16.7144018 4.18601733 -19.5 7.5625 Z M-20.5 23.5625 C-20.12330132 27.84779137 -20.12330132 27.84779137 -17.9375 31.4375 C-14.45630165 33.04420693 -11.22796581 33.1024633 -7.5 32.5625 C-4.53490467 31.55207782 -4.53490467 31.55207782 -2.5 29.5625 C-1.33789781 27.16898505 -1.33789781 27.16898505 -1.5 24.5625 C-3.23364831 21.44193304 -4.05995373 20.70918209 -7.5 19.5625 C-13.42286081 19.08484993 -16.10823083 19.17073083 -20.5 23.5625 Z " fill="#003948" transform="translate(346.5,40.4375)"/>
<path d="M0 0 C7.59 0 15.18 0 23 0 C23 1.98 23 3.96 23 6 C14.585 6.495 14.585 6.495 6 7 C5.67 9.97 5.34 12.94 5 16 C6.08667969 15.94779297 6.08667969 15.94779297 7.1953125 15.89453125 C17.32536521 15.61088977 17.32536521 15.61088977 22 19 C24.92647067 22.41421579 25.53389612 25.5092359 25.35546875 30.00390625 C24.6392806 34.02557819 22.46899523 36.89825357 19.25 39.3125 C12.29394521 41.43796118 5.90138888 41.30046296 -1 39 C-3.296875 37.421875 -3.296875 37.421875 -5 36 C-4.34 34.35 -3.68 32.7 -3 31 C-0.02705936 31 1.12218589 31.39049491 3.75 32.5625 C7.83330468 34.14167861 10.71793726 34.25943022 15 33 C17.19887923 31.40330166 17.19887923 31.40330166 18 29 C17.88529093 26.25198691 17.88529093 26.25198691 16 24 C10.16934972 21.9176249 4.14783173 21.4787246 -2 21 C-1.85888117 18.24968413 -1.71228835 15.49984582 -1.5625 12.75 C-1.50352539 11.58404297 -1.50352539 11.58404297 -1.44335938 10.39453125 C-1.38051758 9.26337891 -1.38051758 9.26337891 -1.31640625 8.109375 C-1.27974854 7.41811523 -1.24309082 6.72685547 -1.20532227 6.01464844 C-1 4 -1 4 0 0 Z " fill="#003949" transform="translate(359,38)"/>
<path d="M0 0 C10.23 0 20.46 0 31 0 C30.1997872 5.60148958 29.13297934 9.64117903 26.875 14.6484375 C26.41456299 15.6954332 26.41456299 15.6954332 25.94482422 16.76358032 C25.29994409 18.22585094 24.65095634 19.68631635 23.99804688 21.14501953 C22.99513655 23.38586663 22.00434654 25.63176735 21.015625 27.87890625 C20.38610471 29.30238781 19.75592019 30.72557585 19.125 32.1484375 C18.82706543 32.82127777 18.52913086 33.49411804 18.22216797 34.18734741 C16.11801603 38.88198397 16.11801603 38.88198397 15 40 C12.66702567 40.04092937 10.33294775 40.04241723 8 40 C10.30817116 32.50829089 13.37222283 25.53433204 16.6875 18.4375 C17.19861328 17.33341797 17.70972656 16.22933594 18.23632812 15.09179688 C19.48662656 12.39255445 20.74272135 9.69599819 22 7 C17.05 6.67 12.1 6.34 7 6 C7 8.31 7 10.62 7 13 C4.69 13 2.38 13 0 13 C0 8.71 0 4.42 0 0 Z " fill="#003A49" transform="translate(386,38)"/>
<path d="M0 0 C13.53 0 27.06 0 41 0 C41 3.3 41 6.6 41 10 C27.47 10 13.94 10 0 10 C0 6.7 0 3.4 0 0 Z " fill="#003A49" transform="translate(1194,245)"/>
<path d="M0 0 C2.58455285 1.89533875 2.96275506 2.88826517 4 6 C4.1447963 7.95475009 4.22067502 9.9151138 4.25 11.875 C4.27578125 12.90367187 4.3015625 13.93234375 4.328125 14.9921875 C3.95503198 18.41220687 3.03027507 20.25025853 1 23 C-2.21994068 24.60997034 -5.51739836 24.59307672 -9 24 C-12.29896704 21.29315525 -12.92174197 19.34098141 -13.875 15.1875 C-14.29850411 9.58665814 -13.56204992 4.8298299 -9.8125 0.4375 C-6.0626042 -1.47911341 -4.0102831 -1.11396753 0 0 Z " fill="#003A49" transform="translate(355,576)"/>
<path d="M0 0 C4.95 0 9.9 0 15 0 C15 13.2 15 26.4 15 40 C12.69 40 10.38 40 8 40 C8 28.78 8 17.56 8 6 C5.36 6 2.72 6 0 6 C0 4.02 0 2.04 0 0 Z " fill="#003A49" transform="translate(297,38)"/>
<path d="M0 0 C1.94140625 0.3828125 1.94140625 0.3828125 4.44140625 2.0078125 C6.38421094 5.08391993 6.46365118 6.80170439 5.94140625 10.3828125 C4.81640625 12.6953125 4.81640625 12.6953125 2.94140625 14.3828125 C-0.74971301 15.58643834 -2.35458326 15.72699541 -5.87109375 14.0078125 C-8.05859375 12.3828125 -8.05859375 12.3828125 -9.05859375 11.3828125 C-9.32216019 7.89055717 -9.39812225 5.21041321 -8.05859375 1.9453125 C-5.45928939 -0.08539403 -3.24528649 -0.1792976 0 0 Z " fill="#003949" transform="translate(265.05859375,50.6171875)"/>
<path d="M0 0 C3.817383 0.06146055 3.817383 0.06146055 6.0625 1.4375 C7.46314633 3.82683786 7.99246284 5.46671973 8.125 8.25 C6.72478335 11.79172447 5.67266224 12.97616888 2.25 14.6875 C-1.39443683 15.34349863 -2.82558546 15.36764899 -5.875 13.25 C-7.375 9.9375 -7.375 9.9375 -7.875 6.25 C-5.77318552 1.64602542 -5.05961128 0.32642653 0 0 Z " fill="#003949" transform="translate(449.875,50.75)"/>
</svg>
